<svg width="347" height="120" viewBox="0 0 347 120" fill="none" xmlns="http://www.w3.org/2000/svg">
<path d="M75.0786 49.902C74.7058 50.1877 68.1233 53.851 68.1233 61.9965C68.1233 71.4182 76.4993 74.7513 76.75 74.8339C76.7114 75.037 75.4193 79.3987 72.3338 83.8429C69.5825 87.7537 66.7091 91.6583 62.3379 91.6583C57.9668 91.6583 56.8418 89.1505 51.7957 89.1505C46.8781 89.1505 45.1296 91.7408 41.1313 91.7408C37.133 91.7408 34.3431 88.122 31.1354 83.6778C27.4199 78.459 24.418 70.3516 24.418 62.6568C24.418 50.3146 32.5432 43.769 40.5399 43.769C44.7889 43.769 48.3309 46.5244 50.9986 46.5244C53.5377 46.5244 57.4975 43.6039 62.3315 43.6039C64.1636 43.6039 70.746 43.769 75.0786 49.902ZM60.0366 38.3788C62.0358 36.0361 63.45 32.7855 63.45 29.5349C63.45 29.0841 63.4115 28.627 63.3279 28.2588C60.0752 28.3794 56.2054 30.3983 53.872 33.0712C52.04 35.1282 50.3301 38.3788 50.3301 41.6739C50.3301 42.1691 50.4136 42.6643 50.4522 42.823C50.6579 42.8611 50.9922 42.9056 51.3264 42.9056C54.2448 42.9056 57.9153 40.9755 60.0366 38.3788Z" fill="white"/>
<path d="M96.7745 41.4419C96.6058 41.4419 96.4624 41.3828 96.3443 41.2648C96.2262 41.1467 96.1672 41.0033 96.1672 40.8346V24.3607C96.1672 24.1751 96.2262 24.0233 96.3443 23.9052C96.4624 23.7871 96.6058 23.7281 96.7745 23.7281H102.949C104.653 23.7281 106.053 23.9896 107.15 24.5125C108.263 25.0355 109.098 25.8115 109.655 26.8406C110.229 27.8697 110.524 29.1266 110.541 30.6112C110.574 31.3534 110.591 32.0114 110.591 32.585C110.591 33.1586 110.574 33.8081 110.541 34.5335C110.507 36.1024 110.22 37.4015 109.68 38.4305C109.14 39.4428 108.322 40.2019 107.226 40.708C106.146 41.1973 104.763 41.4419 103.076 41.4419H96.7745ZM99.6846 38.5318H102.949C103.894 38.5318 104.661 38.3968 105.252 38.1269C105.842 37.857 106.273 37.4268 106.542 36.8363C106.829 36.229 106.981 35.4361 106.998 34.4576C107.015 33.9515 107.023 33.5128 107.023 33.1417C107.04 32.7537 107.04 32.3741 107.023 32.003C107.023 31.6149 107.015 31.1763 106.998 30.6871C106.964 29.3037 106.618 28.283 105.96 27.6251C105.302 26.9672 104.257 26.6382 102.823 26.6382H99.6846V38.5318ZM119.477 41.6949C118.127 41.6949 116.988 41.4588 116.06 40.9864C115.149 40.514 114.449 39.8476 113.96 38.9873C113.488 38.1269 113.218 37.1231 113.15 35.9759C113.133 35.6722 113.125 35.3011 113.125 34.8625C113.125 34.4238 113.133 34.0527 113.15 33.749C113.218 32.585 113.496 31.5812 113.985 30.7377C114.492 29.8773 115.2 29.2109 116.111 28.7385C117.039 28.2662 118.161 28.03 119.477 28.03C120.793 28.03 121.906 28.2662 122.817 28.7385C123.745 29.2109 124.453 29.8773 124.943 30.7377C125.449 31.5812 125.736 32.585 125.803 33.749C125.82 34.0527 125.828 34.4238 125.828 34.8625C125.828 35.3011 125.82 35.6722 125.803 35.9759C125.736 37.1231 125.457 38.1269 124.968 38.9873C124.496 39.8476 123.795 40.514 122.868 40.9864C121.957 41.4588 120.826 41.6949 119.477 41.6949ZM119.477 39.1897C120.371 39.1897 121.062 38.9113 121.552 38.3546C122.041 37.781 122.311 36.946 122.362 35.8494C122.378 35.5963 122.387 35.2674 122.387 34.8625C122.387 34.4576 122.378 34.1286 122.362 33.8756C122.311 32.7959 122.041 31.9692 121.552 31.3956C121.062 30.822 120.371 30.5352 119.477 30.5352C118.583 30.5352 117.891 30.822 117.402 31.3956C116.912 31.9692 116.642 32.7959 116.592 33.8756C116.575 34.1286 116.567 34.4576 116.567 34.8625C116.567 35.2674 116.575 35.5963 116.592 35.8494C116.642 36.946 116.912 37.781 117.402 38.3546C117.891 38.9113 118.583 39.1897 119.477 39.1897ZM131.855 41.4419C131.619 41.4419 131.441 41.3828 131.323 41.2648C131.205 41.1467 131.104 40.9948 131.02 40.8093L127.401 29.0675C127.384 28.9832 127.376 28.9073 127.376 28.8398C127.376 28.6879 127.426 28.5614 127.528 28.4602C127.646 28.3421 127.772 28.283 127.907 28.283H129.78C129.982 28.283 130.142 28.3421 130.261 28.4602C130.379 28.5614 130.446 28.6626 130.463 28.7639L132.943 37.14L135.575 28.8398C135.608 28.7217 135.684 28.6036 135.802 28.4855C135.921 28.3505 136.098 28.283 136.334 28.283H137.599C137.835 28.283 138.012 28.3505 138.131 28.4855C138.249 28.6036 138.325 28.7217 138.358 28.8398L140.99 37.14L143.47 28.7639C143.487 28.6626 143.546 28.5614 143.647 28.4602C143.765 28.3421 143.926 28.283 144.128 28.283H146.001C146.152 28.283 146.279 28.3421 146.38 28.4602C146.498 28.5614 146.557 28.6879 146.557 28.8398C146.557 28.9073 146.54 28.9832 146.507 29.0675L142.888 40.8093C142.837 40.9948 142.745 41.1467 142.61 41.2648C142.492 41.3828 142.314 41.4419 142.078 41.4419H140.433C140.197 41.4419 140.012 41.3828 139.877 41.2648C139.742 41.1467 139.649 40.9948 139.598 40.8093L136.967 32.8127L134.335 40.8093C134.267 40.9948 134.166 41.1467 134.031 41.2648C133.913 41.3828 133.727 41.4419 133.474 41.4419H131.855ZM149.627 41.4419C149.458 41.4419 149.315 41.3828 149.197 41.2648C149.079 41.1467 149.02 41.0033 149.02 40.8346V28.8904C149.02 28.7217 149.079 28.5783 149.197 28.4602C149.315 28.3421 149.458 28.283 149.627 28.283H151.702C151.871 28.283 152.014 28.3421 152.132 28.4602C152.25 28.5783 152.31 28.7217 152.31 28.8904V29.9279C152.748 29.3881 153.305 28.941 153.98 28.5867C154.671 28.2156 155.523 28.03 156.536 28.03C157.565 28.03 158.459 28.2662 159.218 28.7385C159.977 29.194 160.559 29.8436 160.964 30.6871C161.386 31.5306 161.597 32.5428 161.597 33.7237V40.8346C161.597 41.0033 161.538 41.1467 161.42 41.2648C161.301 41.3828 161.158 41.4419 160.989 41.4419H158.762C158.594 41.4419 158.45 41.3828 158.332 41.2648C158.214 41.1467 158.155 41.0033 158.155 40.8346V33.8756C158.155 32.8971 157.91 32.1295 157.421 31.5728C156.949 31.016 156.257 30.7377 155.346 30.7377C154.469 30.7377 153.769 31.016 153.246 31.5728C152.723 32.1295 152.461 32.8971 152.461 33.8756V40.8346C152.461 41.0033 152.402 41.1467 152.284 41.2648C152.166 41.3828 152.023 41.4419 151.854 41.4419H149.627ZM165.444 41.4419C165.275 41.4419 165.132 41.3828 165.013 41.2648C164.895 41.1467 164.836 41.0033 164.836 40.8346V24.0823C164.836 23.9136 164.895 23.7702 165.013 23.6521C165.132 23.5341 165.275 23.475 165.444 23.475H167.544C167.713 23.475 167.856 23.5341 167.974 23.6521C168.092 23.7702 168.151 23.9136 168.151 24.0823V40.8346C168.151 41.0033 168.092 41.1467 167.974 41.2648C167.856 41.3828 167.713 41.4419 167.544 41.4419H165.444ZM177.328 41.6949C175.979 41.6949 174.84 41.4588 173.912 40.9864C173.001 40.514 172.301 39.8476 171.812 38.9873C171.339 38.1269 171.069 37.1231 171.002 35.9759C170.985 35.6722 170.977 35.3011 170.977 34.8625C170.977 34.4238 170.985 34.0527 171.002 33.749C171.069 32.585 171.348 31.5812 171.837 30.7377C172.343 29.8773 173.052 29.2109 173.963 28.7385C174.891 28.2662 176.012 28.03 177.328 28.03C178.644 28.03 179.758 28.2662 180.669 28.7385C181.597 29.2109 182.305 29.8773 182.794 30.7377C183.3 31.5812 183.587 32.585 183.655 33.749C183.672 34.0527 183.68 34.4238 183.68 34.8625C183.68 35.3011 183.672 35.6722 183.655 35.9759C183.587 37.1231 183.309 38.1269 182.82 38.9873C182.347 39.8476 181.647 40.514 180.719 40.9864C179.808 41.4588 178.678 41.6949 177.328 41.6949ZM177.328 39.1897C178.222 39.1897 178.914 38.9113 179.403 38.3546C179.893 37.781 180.163 36.946 180.213 35.8494C180.23 35.5963 180.238 35.2674 180.238 34.8625C180.238 34.4576 180.23 34.1286 180.213 33.8756C180.163 32.7959 179.893 31.9692 179.403 31.3956C178.914 30.822 178.222 30.5352 177.328 30.5352C176.434 30.5352 175.743 30.822 175.253 31.3956C174.764 31.9692 174.494 32.7959 174.444 33.8756C174.427 34.1286 174.418 34.4576 174.418 34.8625C174.418 35.2674 174.427 35.5963 174.444 35.8494C174.494 36.946 174.764 37.781 175.253 38.3546C175.743 38.9113 176.434 39.1897 177.328 39.1897ZM190.305 41.6949C189.428 41.6949 188.635 41.5262 187.926 41.1888C187.218 40.8346 186.652 40.3706 186.231 39.797C185.826 39.2066 185.623 38.5486 185.623 37.8232C185.623 36.6423 186.096 35.706 187.041 35.0143C188.002 34.3058 189.267 33.8334 190.836 33.5972L194.303 33.0911V32.5597C194.303 31.8511 194.126 31.3028 193.772 30.9148C193.417 30.5268 192.81 30.3328 191.95 30.3328C191.342 30.3328 190.845 30.4593 190.457 30.7124C190.086 30.9486 189.807 31.2691 189.622 31.674C189.487 31.8933 189.293 32.003 189.04 32.003H187.041C186.855 32.003 186.712 31.9523 186.61 31.8511C186.526 31.7499 186.484 31.6149 186.484 31.4462C186.501 31.1763 186.61 30.8473 186.813 30.4593C187.015 30.0713 187.336 29.7002 187.774 29.3459C188.213 28.9747 188.778 28.6626 189.47 28.4096C190.162 28.1565 190.997 28.03 191.975 28.03C193.038 28.03 193.932 28.165 194.657 28.4349C195.4 28.6879 195.99 29.0338 196.429 29.4724C196.867 29.911 197.188 30.4256 197.39 31.016C197.593 31.6065 197.694 32.2307 197.694 32.8886V40.8346C197.694 41.0033 197.635 41.1467 197.517 41.2648C197.399 41.3828 197.255 41.4419 197.087 41.4419H195.037C194.851 41.4419 194.7 41.3828 194.582 41.2648C194.48 41.1467 194.43 41.0033 194.43 40.8346V39.8476C194.21 40.1682 193.915 40.4719 193.544 40.7586C193.173 41.0286 192.717 41.2563 192.178 41.4419C191.655 41.6106 191.03 41.6949 190.305 41.6949ZM191.165 39.2909C191.756 39.2909 192.287 39.1644 192.76 38.9113C193.249 38.6583 193.628 38.2703 193.898 37.7473C194.185 37.2074 194.328 36.5326 194.328 35.7229V35.1914L191.798 35.5963C190.803 35.7482 190.06 35.9928 189.571 36.3302C189.082 36.6676 188.837 37.0809 188.837 37.5702C188.837 37.9413 188.947 38.2618 189.166 38.5318C189.402 38.7848 189.698 38.9788 190.052 39.1138C190.406 39.2319 190.777 39.2909 191.165 39.2909ZM205.824 41.6949C204.947 41.6949 204.171 41.5516 203.496 41.2648C202.838 40.9611 202.29 40.5393 201.852 39.9995C201.413 39.4596 201.075 38.827 200.839 38.1016C200.603 37.3593 200.468 36.5495 200.434 35.6722C200.418 35.3686 200.409 35.0987 200.409 34.8625C200.409 34.6094 200.418 34.3311 200.434 34.0274C200.468 33.1839 200.595 32.3994 200.814 31.674C201.05 30.9486 201.388 30.3159 201.826 29.7761C202.282 29.2194 202.838 28.7892 203.496 28.4855C204.171 28.1818 204.947 28.03 205.824 28.03C206.735 28.03 207.503 28.1903 208.127 28.5108C208.768 28.8145 209.3 29.2109 209.722 29.7002V24.0823C209.722 23.9136 209.772 23.7702 209.873 23.6521C209.991 23.5341 210.143 23.475 210.329 23.475H212.48C212.649 23.475 212.792 23.5341 212.91 23.6521C213.028 23.7702 213.087 23.9136 213.087 24.0823V40.8346C213.087 41.0033 213.028 41.1467 212.91 41.2648C212.792 41.3828 212.649 41.4419 212.48 41.4419H210.481C210.295 41.4419 210.143 41.3828 210.025 41.2648C209.924 41.1467 209.873 41.0033 209.873 40.8346V39.8983C209.452 40.4212 208.912 40.8514 208.254 41.1888C207.613 41.5262 206.803 41.6949 205.824 41.6949ZM206.761 38.9873C207.469 38.9873 208.034 38.827 208.456 38.5065C208.878 38.1859 209.19 37.781 209.393 37.2918C209.595 36.7857 209.705 36.2711 209.722 35.7482C209.738 35.4445 209.747 35.124 209.747 34.7866C209.747 34.4323 209.738 34.1033 209.722 33.7996C209.705 33.2935 209.587 32.8127 209.367 32.3572C209.148 31.8849 208.827 31.4968 208.406 31.1932C207.984 30.8895 207.436 30.7377 206.761 30.7377C206.052 30.7377 205.487 30.8979 205.065 31.2185C204.66 31.5222 204.365 31.927 204.18 32.4331C203.994 32.9393 203.884 33.496 203.851 34.1033C203.834 34.6094 203.834 35.1155 203.851 35.6216C203.884 36.229 203.994 36.7857 204.18 37.2918C204.365 37.7979 204.66 38.2112 205.065 38.5318C205.487 38.8354 206.052 38.9873 206.761 38.9873ZM228.063 41.6949C226.713 41.6949 225.574 41.4588 224.647 40.9864C223.736 40.514 223.035 39.8476 222.546 38.9873C222.074 38.1269 221.804 37.1231 221.736 35.9759C221.72 35.6722 221.711 35.3011 221.711 34.8625C221.711 34.4238 221.72 34.0527 221.736 33.749C221.804 32.585 222.082 31.5812 222.572 30.7377C223.078 29.8773 223.786 29.2109 224.697 28.7385C225.625 28.2662 226.747 28.03 228.063 28.03C229.379 28.03 230.492 28.2662 231.403 28.7385C232.331 29.2109 233.04 29.8773 233.529 30.7377C234.035 31.5812 234.322 32.585 234.389 33.749C234.406 34.0527 234.415 34.4238 234.415 34.8625C234.415 35.3011 234.406 35.6722 234.389 35.9759C234.322 37.1231 234.043 38.1269 233.554 38.9873C233.082 39.8476 232.382 40.514 231.454 40.9864C230.543 41.4588 229.412 41.6949 228.063 41.6949ZM228.063 39.1897C228.957 39.1897 229.649 38.9113 230.138 38.3546C230.627 37.781 230.897 36.946 230.948 35.8494C230.965 35.5963 230.973 35.2674 230.973 34.8625C230.973 34.4576 230.965 34.1286 230.948 33.8756C230.897 32.7959 230.627 31.9692 230.138 31.3956C229.649 30.822 228.957 30.5352 228.063 30.5352C227.169 30.5352 226.477 30.822 225.988 31.3956C225.499 31.9692 225.229 32.7959 225.178 33.8756C225.161 34.1286 225.153 34.4576 225.153 34.8625C225.153 35.2674 225.161 35.5963 225.178 35.8494C225.229 36.946 225.499 37.781 225.988 38.3546C226.477 38.9113 227.169 39.1897 228.063 39.1897ZM237.826 41.4419C237.657 41.4419 237.514 41.3828 237.395 41.2648C237.277 41.1467 237.218 41.0033 237.218 40.8346V28.8904C237.218 28.7217 237.277 28.5783 237.395 28.4602C237.514 28.3421 237.657 28.283 237.826 28.283H239.901C240.069 28.283 240.213 28.3421 240.331 28.4602C240.449 28.5783 240.508 28.7217 240.508 28.8904V29.9279C240.947 29.3881 241.503 28.941 242.178 28.5867C242.87 28.2156 243.722 28.03 244.734 28.03C245.763 28.03 246.657 28.2662 247.416 28.7385C248.176 29.194 248.758 29.8436 249.162 30.6871C249.584 31.5306 249.795 32.5428 249.795 33.7237V40.8346C249.795 41.0033 249.736 41.1467 249.618 41.2648C249.5 41.3828 249.356 41.4419 249.188 41.4419H246.961C246.792 41.4419 246.649 41.3828 246.531 41.2648C246.413 41.1467 246.354 41.0033 246.354 40.8346V33.8756C246.354 32.8971 246.109 32.1295 245.62 31.5728C245.147 31.016 244.456 30.7377 243.545 30.7377C242.667 30.7377 241.967 31.016 241.444 31.5728C240.921 32.1295 240.66 32.8971 240.66 33.8756V40.8346C240.66 41.0033 240.601 41.1467 240.483 41.2648C240.365 41.3828 240.221 41.4419 240.052 41.4419H237.826ZM264.22 41.4419C263.208 41.4419 262.356 41.2648 261.664 40.9105C260.972 40.5562 260.458 40.0332 260.121 39.3415C259.783 38.633 259.614 37.7557 259.614 36.7098V30.9654H257.615C257.447 30.9654 257.303 30.9064 257.185 30.7883C257.067 30.6702 257.008 30.5268 257.008 30.3581V28.8904C257.008 28.7217 257.067 28.5783 257.185 28.4602C257.303 28.3421 257.447 28.283 257.615 28.283H259.614V24.0823C259.614 23.9136 259.665 23.7702 259.766 23.6521C259.884 23.5341 260.036 23.475 260.222 23.475H262.271C262.44 23.475 262.584 23.5341 262.702 23.6521C262.82 23.7702 262.879 23.9136 262.879 24.0823V28.283H266.042C266.211 28.283 266.354 28.3421 266.472 28.4602C266.59 28.5783 266.649 28.7217 266.649 28.8904V30.3581C266.649 30.5268 266.59 30.6702 266.472 30.7883C266.354 30.9064 266.211 30.9654 266.042 30.9654H262.879V36.4567C262.879 37.1484 262.997 37.6882 263.233 38.0763C263.486 38.4643 263.916 38.6583 264.524 38.6583H266.27C266.438 38.6583 266.582 38.7173 266.7 38.8354C266.818 38.9535 266.877 39.0969 266.877 39.2656V40.8346C266.877 41.0033 266.818 41.1467 266.7 41.2648C266.582 41.3828 266.438 41.4419 266.27 41.4419H264.22ZM269.755 41.4419C269.586 41.4419 269.442 41.3828 269.324 41.2648C269.206 41.1467 269.147 41.0033 269.147 40.8346V24.0823C269.147 23.9136 269.206 23.7702 269.324 23.6521C269.442 23.5341 269.586 23.475 269.755 23.475H272.007C272.192 23.475 272.336 23.5341 272.437 23.6521C272.555 23.7702 272.614 23.9136 272.614 24.0823V29.852C273.07 29.3121 273.626 28.8735 274.284 28.5361C274.942 28.1987 275.752 28.03 276.714 28.03C277.743 28.03 278.637 28.2662 279.396 28.7385C280.172 29.194 280.771 29.8436 281.193 30.6871C281.614 31.5306 281.825 32.5428 281.825 33.7237V40.8346C281.825 41.0033 281.766 41.1467 281.648 41.2648C281.53 41.3828 281.387 41.4419 281.218 41.4419H278.94C278.772 41.4419 278.628 41.3828 278.51 41.2648C278.392 41.1467 278.333 41.0033 278.333 40.8346V33.8756C278.333 32.8971 278.089 32.1295 277.599 31.5728C277.127 31.016 276.435 30.7377 275.524 30.7377C274.647 30.7377 273.938 31.016 273.399 31.5728C272.876 32.1295 272.614 32.8971 272.614 33.8756V40.8346C272.614 41.0033 272.555 41.1467 272.437 41.2648C272.336 41.3828 272.192 41.4419 272.007 41.4419H269.755ZM290.705 41.6949C288.833 41.6949 287.348 41.1551 286.251 40.0754C285.155 38.9957 284.564 37.4605 284.48 35.4698C284.463 35.3011 284.455 35.0902 284.455 34.8372C284.455 34.5672 284.463 34.3564 284.48 34.2045C284.547 32.9393 284.834 31.8427 285.34 30.9148C285.863 29.987 286.58 29.2784 287.491 28.7892C288.402 28.283 289.474 28.03 290.705 28.03C292.072 28.03 293.219 28.3168 294.147 28.8904C295.075 29.4471 295.775 30.2316 296.247 31.2438C296.719 32.2391 296.956 33.3948 296.956 34.7106V35.2421C296.956 35.4108 296.897 35.5542 296.778 35.6722C296.66 35.7903 296.509 35.8494 296.323 35.8494H287.922C287.922 35.8494 287.922 35.8747 287.922 35.9253C287.922 35.9759 287.922 36.0181 287.922 36.0518C287.938 36.6423 288.048 37.1906 288.251 37.6967C288.47 38.1859 288.782 38.5824 289.187 38.886C289.609 39.1897 290.106 39.3415 290.68 39.3415C291.152 39.3415 291.549 39.2741 291.869 39.1391C292.19 38.9873 292.451 38.8186 292.654 38.633C292.856 38.4474 293 38.2956 293.084 38.1775C293.236 37.975 293.354 37.857 293.438 37.8232C293.539 37.7726 293.683 37.7473 293.868 37.7473H296.045C296.213 37.7473 296.348 37.7979 296.45 37.8991C296.568 38.0004 296.618 38.1269 296.601 38.2787C296.584 38.5486 296.441 38.8776 296.171 39.2656C295.918 39.6536 295.547 40.0332 295.058 40.4044C294.568 40.7755 293.953 41.0876 293.21 41.3407C292.485 41.5769 291.65 41.6949 290.705 41.6949ZM287.922 33.7237H293.514V33.6478C293.514 32.9899 293.404 32.4163 293.185 31.927C292.966 31.4378 292.645 31.0498 292.223 30.763C291.802 30.4762 291.296 30.3328 290.705 30.3328C290.115 30.3328 289.609 30.4762 289.187 30.763C288.765 31.0498 288.445 31.4378 288.225 31.927C288.023 32.4163 287.922 32.9899 287.922 33.6478V33.7237Z" fill="white"/>
<path d="M96.0705 89.0698C95.7845 89.0698 95.5163 88.9626 95.266 88.748C95.0515 88.5335 94.9442 88.2653 94.9442 87.9435C94.9442 87.8005 94.98 87.6396 95.0515 87.4608L107.977 52.8674C108.084 52.5099 108.281 52.206 108.567 51.9557C108.889 51.6696 109.318 51.5266 109.854 51.5266H115.7C116.237 51.5266 116.648 51.6696 116.934 51.9557C117.22 52.206 117.434 52.5099 117.577 52.8674L130.503 87.4608C130.539 87.6396 130.557 87.8005 130.557 87.9435C130.557 88.2653 130.449 88.5335 130.235 88.748C130.02 88.9626 129.77 89.0698 129.484 89.0698H124.818C124.317 89.0698 123.942 88.9626 123.692 88.748C123.477 88.4977 123.334 88.2653 123.263 88.0508L120.742 81.5075H104.813L102.292 88.0508C102.22 88.2653 102.06 88.4977 101.809 88.748C101.595 88.9626 101.237 89.0698 100.737 89.0698H96.0705ZM106.69 75.3397H118.865L112.75 58.7671L106.69 75.3397ZM132.507 99.2601C132.149 99.2601 131.845 99.135 131.595 98.8847C131.345 98.6344 131.22 98.3305 131.22 97.9729V62.4678C131.22 62.1102 131.345 61.8063 131.595 61.556C131.845 61.3057 132.149 61.1806 132.507 61.1806H136.744C137.137 61.1806 137.441 61.3057 137.655 61.556C137.906 61.8063 138.031 62.1102 138.031 62.4678V64.6131C138.889 63.4689 140.015 62.5214 141.41 61.7705C142.804 61.0197 144.538 60.6442 146.612 60.6442C148.507 60.6442 150.152 60.9482 151.546 61.556C152.941 62.1639 154.103 63.0399 155.033 64.184C155.962 65.2925 156.677 66.6154 157.178 68.1529C157.679 69.6904 157.965 71.3888 158.036 73.248C158.072 73.8559 158.09 74.4816 158.09 75.1252C158.09 75.7688 158.072 76.4124 158.036 77.056C158 78.8438 157.732 80.5064 157.232 82.0439C156.731 83.5456 155.998 84.8686 155.033 86.0127C154.103 87.1212 152.941 87.9972 151.546 88.6408C150.152 89.2844 148.507 89.6062 146.612 89.6062C144.681 89.6062 143.037 89.2665 141.678 88.5871C140.319 87.872 139.211 86.9424 138.353 85.7982V97.9729C138.353 98.3305 138.228 98.6344 137.977 98.8847C137.763 99.135 137.459 99.2601 137.066 99.2601H132.507ZM144.628 83.8674C146.165 83.8674 147.363 83.5456 148.221 82.902C149.079 82.2227 149.687 81.3466 150.045 80.274C150.438 79.2013 150.67 78.0214 150.742 76.7342C150.813 75.6615 150.813 74.5889 150.742 73.5162C150.67 72.229 150.438 71.0491 150.045 69.9764C149.687 68.9038 149.079 68.0456 148.221 67.402C147.363 66.7227 146.165 66.383 144.628 66.383C143.162 66.383 141.964 66.7227 141.034 67.402C140.14 68.0814 139.479 68.9574 139.05 70.0301C138.657 71.067 138.424 72.1396 138.353 73.248C138.317 73.8916 138.299 74.571 138.299 75.2861C138.299 76.0012 138.317 76.6984 138.353 77.3778C138.388 78.4505 138.639 79.4874 139.104 80.4885C139.568 81.4539 140.248 82.2584 141.142 82.902C142.036 83.5456 143.198 83.8674 144.628 83.8674ZM161.697 99.2601C161.339 99.2601 161.035 99.135 160.785 98.8847C160.535 98.6344 160.41 98.3305 160.41 97.9729V62.4678C160.41 62.1102 160.535 61.8063 160.785 61.556C161.035 61.3057 161.339 61.1806 161.697 61.1806H165.934C166.327 61.1806 166.631 61.3057 166.846 61.556C167.096 61.8063 167.221 62.1102 167.221 62.4678V64.6131C168.079 63.4689 169.206 62.5214 170.6 61.7705C171.995 61.0197 173.729 60.6442 175.802 60.6442C177.698 60.6442 179.342 60.9482 180.737 61.556C182.131 62.1639 183.293 63.0399 184.223 64.184C185.153 65.2925 185.868 66.6154 186.368 68.1529C186.869 69.6904 187.155 71.3888 187.226 73.248C187.262 73.8559 187.28 74.4816 187.28 75.1252C187.28 75.7688 187.262 76.4124 187.226 77.056C187.191 78.8438 186.922 80.5064 186.422 82.0439C185.921 83.5456 185.188 84.8686 184.223 86.0127C183.293 87.1212 182.131 87.9972 180.737 88.6408C179.342 89.2844 177.698 89.6062 175.802 89.6062C173.872 89.6062 172.227 89.2665 170.868 88.5871C169.51 87.872 168.401 86.9424 167.543 85.7982V97.9729C167.543 98.3305 167.418 98.6344 167.168 98.8847C166.953 99.135 166.649 99.2601 166.256 99.2601H161.697ZM173.818 83.8674C175.356 83.8674 176.553 83.5456 177.411 82.902C178.27 82.2227 178.877 81.3466 179.235 80.274C179.628 79.2013 179.861 78.0214 179.932 76.7342C180.004 75.6615 180.004 74.5889 179.932 73.5162C179.861 72.229 179.628 71.0491 179.235 69.9764C178.877 68.9038 178.27 68.0456 177.411 67.402C176.553 66.7227 175.356 66.383 173.818 66.383C172.352 66.383 171.154 66.7227 170.225 67.402C169.331 68.0814 168.669 68.9574 168.24 70.0301C167.847 71.067 167.614 72.1396 167.543 73.248C167.507 73.8916 167.489 74.571 167.489 75.2861C167.489 76.0012 167.507 76.6984 167.543 77.3778C167.579 78.4505 167.829 79.4874 168.294 80.4885C168.759 81.4539 169.438 82.2584 170.332 82.902C171.226 83.5456 172.388 83.8674 173.818 83.8674ZM211.725 89.6062C208.399 89.6062 205.61 89.1235 203.358 88.1581C201.141 87.1569 199.443 85.8697 198.263 84.2965C197.118 82.6875 196.511 81.007 196.439 79.255C196.439 78.9332 196.546 78.665 196.761 78.4505C196.975 78.2359 197.244 78.1287 197.565 78.1287H202.339C202.804 78.1287 203.143 78.2359 203.358 78.4505C203.608 78.6292 203.823 78.8616 204.001 79.1477C204.216 79.827 204.627 80.5064 205.235 81.1858C205.843 81.8293 206.665 82.3657 207.702 82.7947C208.775 83.2238 210.116 83.4383 211.725 83.4383C214.299 83.4383 216.212 83.0093 217.463 82.1511C218.75 81.293 219.394 80.131 219.394 78.665C219.394 77.6281 219.054 76.8057 218.375 76.1979C217.696 75.5543 216.641 74.9822 215.211 74.4816C213.816 73.9453 211.957 73.3911 209.633 72.819C206.951 72.1754 204.699 71.4066 202.875 70.5128C201.087 69.5831 199.729 68.4211 198.799 67.0266C197.905 65.6321 197.458 63.8622 197.458 61.7169C197.458 59.6431 198.012 57.8017 199.121 56.1927C200.265 54.5837 201.874 53.3144 203.948 52.3847C206.057 51.4551 208.56 50.9903 211.456 50.9903C213.78 50.9903 215.836 51.3121 217.624 51.9557C219.412 52.5635 220.896 53.3859 222.076 54.4228C223.256 55.424 224.15 56.5145 224.757 57.6944C225.401 58.8386 225.741 59.9649 225.776 61.0733C225.776 61.3594 225.669 61.6275 225.455 61.8778C225.276 62.0923 225.008 62.1996 224.65 62.1996H219.662C219.376 62.1996 219.09 62.1281 218.804 61.9851C218.518 61.8421 218.286 61.5739 218.107 61.1806C217.892 60.0722 217.195 59.1246 216.015 58.338C214.835 57.5514 213.316 57.1581 211.456 57.1581C209.526 57.1581 207.97 57.5156 206.79 58.2308C205.61 58.9459 205.02 60.0543 205.02 61.556C205.02 62.5572 205.306 63.3974 205.879 64.0768C206.486 64.7204 207.434 65.2925 208.721 65.793C210.044 66.2936 211.778 66.8299 213.924 67.402C216.963 68.0814 219.448 68.868 221.379 69.7619C223.309 70.6558 224.722 71.7999 225.616 73.1944C226.509 74.5531 226.956 76.2873 226.956 78.3968C226.956 80.7567 226.313 82.7769 225.026 84.4574C223.774 86.1021 222.004 87.3714 219.716 88.2653C217.428 89.1592 214.764 89.6062 211.725 89.6062ZM241.309 89.0698C239.163 89.0698 237.358 88.6944 235.892 87.9435C234.426 87.1927 233.335 86.0842 232.62 84.6183C231.905 83.1165 231.547 81.2573 231.547 79.0404V66.8657H227.31C226.953 66.8657 226.649 66.7406 226.399 66.4903C226.148 66.24 226.023 65.9361 226.023 65.5785V62.4678C226.023 62.1102 226.148 61.8063 226.399 61.556C226.649 61.3057 226.953 61.1806 227.31 61.1806H231.547V52.2775C231.547 51.9199 231.655 51.616 231.869 51.3657C232.12 51.1154 232.441 50.9903 232.835 50.9903H237.179C237.536 50.9903 237.84 51.1154 238.091 51.3657C238.341 51.616 238.466 51.9199 238.466 52.2775V61.1806H245.17C245.528 61.1806 245.832 61.3057 246.082 61.556C246.332 61.8063 246.457 62.1102 246.457 62.4678V65.5785C246.457 65.9361 246.332 66.24 246.082 66.4903C245.832 66.7406 245.528 66.8657 245.17 66.8657H238.466V78.5041C238.466 79.9701 238.716 81.1142 239.217 81.9366C239.753 82.759 240.665 83.1702 241.952 83.1702H245.653C246.011 83.1702 246.314 83.2953 246.565 83.5456C246.815 83.7959 246.94 84.0998 246.94 84.4574V87.7826C246.94 88.1402 246.815 88.4441 246.565 88.6944C246.314 88.9447 246.011 89.0698 245.653 89.0698H241.309ZM260.279 89.6062C257.419 89.6062 255.005 89.1056 253.039 88.1044C251.108 87.1033 249.624 85.6909 248.587 83.8674C247.586 82.0439 247.014 79.9164 246.871 77.4851C246.835 76.8415 246.817 76.0548 246.817 75.1252C246.817 74.1956 246.835 73.4089 246.871 72.7653C247.014 70.2982 247.604 68.1708 248.641 66.383C249.714 64.5595 251.215 63.1471 253.146 62.146C255.113 61.1448 257.49 60.6442 260.279 60.6442C263.068 60.6442 265.428 61.1448 267.359 62.146C269.325 63.1471 270.827 64.5595 271.864 66.383C272.937 68.1708 273.545 70.2982 273.688 72.7653C273.723 73.4089 273.741 74.1956 273.741 75.1252C273.741 76.0548 273.723 76.8415 273.688 77.4851C273.545 79.9164 272.955 82.0439 271.918 83.8674C270.917 85.6909 269.433 87.1033 267.466 88.1044C265.535 89.1056 263.14 89.6062 260.279 89.6062ZM260.279 84.2965C262.174 84.2965 263.64 83.7065 264.677 82.5266C265.714 81.3109 266.286 79.541 266.393 77.2169C266.429 76.6806 266.447 75.9833 266.447 75.1252C266.447 74.2671 266.429 73.5698 266.393 73.0335C266.286 70.7452 265.714 68.9931 264.677 67.7775C263.64 66.5618 262.174 65.9539 260.279 65.9539C258.384 65.9539 256.918 66.5618 255.881 67.7775C254.844 68.9931 254.272 70.7452 254.165 73.0335C254.129 73.5698 254.112 74.2671 254.112 75.1252C254.112 75.9833 254.129 76.6806 254.165 77.2169C254.272 79.541 254.844 81.3109 255.881 82.5266C256.918 83.7065 258.384 84.2965 260.279 84.2965ZM277.216 89.0698C276.859 89.0698 276.555 88.9447 276.305 88.6944C276.054 88.4441 275.929 88.1402 275.929 87.7826V62.5214C275.929 62.1281 276.054 61.8063 276.305 61.556C276.555 61.3057 276.859 61.1806 277.216 61.1806H281.561C281.918 61.1806 282.222 61.3057 282.473 61.556C282.759 61.8063 282.902 62.1281 282.902 62.5214V64.7204C283.724 63.5762 284.779 62.7002 286.066 62.0923C287.389 61.4845 288.909 61.1806 290.625 61.1806H292.824C293.217 61.1806 293.521 61.3057 293.736 61.556C293.986 61.8063 294.111 62.1102 294.111 62.4678V66.3294C294.111 66.6869 293.986 66.9908 293.736 67.2411C293.521 67.4914 293.217 67.6166 292.824 67.6166H288.64C286.924 67.6166 285.583 68.0993 284.618 69.0647C283.688 70.0301 283.223 71.353 283.223 73.0335V87.7826C283.223 88.1402 283.098 88.4441 282.848 88.6944C282.598 88.9447 282.276 89.0698 281.883 89.0698H277.216ZM306.187 89.6062C302.218 89.6062 299.071 88.462 296.747 86.1736C294.423 83.8853 293.172 80.6315 292.993 76.4124C292.957 76.0548 292.939 75.6079 292.939 75.0716C292.939 74.4995 292.957 74.0525 292.993 73.7307C293.136 71.0491 293.744 68.725 294.817 66.7584C295.925 64.7919 297.445 63.2902 299.375 62.2532C301.306 61.1806 303.577 60.6442 306.187 60.6442C309.083 60.6442 311.514 61.2521 313.481 62.4678C315.447 63.6477 316.931 65.3103 317.932 67.4557C318.934 69.5652 319.434 72.0145 319.434 74.8034V75.9297C319.434 76.2873 319.309 76.5912 319.059 76.8415C318.808 77.0918 318.487 77.2169 318.093 77.2169H300.287C300.287 77.2169 300.287 77.2705 300.287 77.3778C300.287 77.4851 300.287 77.5745 300.287 77.646C300.323 78.8974 300.555 80.0595 300.984 81.1321C301.449 82.169 302.111 83.0093 302.969 83.6529C303.863 84.2965 304.917 84.6183 306.133 84.6183C307.134 84.6183 307.975 84.4753 308.654 84.1892C309.333 83.8674 309.887 83.5099 310.317 83.1165C310.746 82.7232 311.05 82.4014 311.228 82.1511C311.55 81.7221 311.8 81.4718 311.979 81.4003C312.194 81.293 312.498 81.2394 312.891 81.2394H317.503C317.861 81.2394 318.147 81.3466 318.362 81.5612C318.612 81.7757 318.719 82.0439 318.683 82.3657C318.648 82.9378 318.344 83.635 317.772 84.4574C317.235 85.2797 316.449 86.0842 315.412 86.8709C314.375 87.6575 313.07 88.319 311.496 88.8553C309.959 89.3559 308.189 89.6062 306.187 89.6062ZM300.287 72.7117H312.14V72.5508C312.14 71.1563 311.908 69.9407 311.443 68.9038C310.978 67.8668 310.299 67.0445 309.405 66.4366C308.511 65.8288 307.438 65.5249 306.187 65.5249C304.935 65.5249 303.863 65.8288 302.969 66.4366C302.075 67.0445 301.396 67.8668 300.931 68.9038C300.502 69.9407 300.287 71.1563 300.287 72.5508V72.7117Z" fill="white"/>
</svg>
