<?xml version="1.0" encoding="utf-8"?>
<!-- Generator: Adobe Illustrator 26.0.1, SVG Export Plug-In . SVG Version: 6.00 Build 0)  -->
<svg version="1.1" id="Camada_1" xmlns="http://www.w3.org/2000/svg" xmlns:xlink="http://www.w3.org/1999/xlink" x="0px" y="0px"
	 viewBox="0 0 300 88.9" style="enable-background:new 0 0 300 88.9;" xml:space="preserve">
<style type="text/css">
	.st0{fill:#A6A6A6;}
	.st1{fill-rule:evenodd;clip-rule:evenodd;fill:#FFFFFF;}
	.st2{fill:#FFFFFF;}
</style>
<g>
	<g>
		<g>
			<path d="M288.9,88.9H11.1C5,88.9,0,83.9,0,77.8V11.1C0,5,5,0,11.1,0h277.8C295,0,300,5,300,11.1v66.7
				C300,83.9,295,88.9,288.9,88.9z"/>
		</g>
		<g>
			<g>
				<path class="st0" d="M288.9,1.8c5.1,0,9.3,4.2,9.3,9.3v66.7c0,5.1-4.2,9.3-9.3,9.3H11.1c-5.1,0-9.3-4.2-9.3-9.3V11.1
					C1.8,6,6,1.8,11.1,1.8H288.9 M288.9,0H11.1C5,0,0,5,0,11.1v66.7c0,6.1,5,11.1,11.1,11.1h277.8c6.1,0,11.1-5,11.1-11.1V11.1
					C300,5,295,0,288.9,0L288.9,0z"/>
			</g>
		</g>
	</g>
	<g>
		<g>
			<path class="st1" d="M63.5,42.8c0.1-4.3,2.3-8.2,5.9-10.4c-2.3-3.3-6-5.3-10-5.4c-4.2-0.4-8.3,2.5-10.4,2.5c-2.2,0-5.5-2.5-9-2.4
				c-4.7,0.2-8.9,2.8-11.2,6.8c-4.8,8.4-1.2,20.8,3.4,27.5c2.3,3.3,5,7,8.6,6.9c3.5-0.1,4.8-2.2,9-2.2c4.2,0,5.4,2.2,9,2.1
				c3.7-0.1,6.1-3.3,8.3-6.7c1.7-2.4,3-5,3.8-7.8C66.4,51.9,63.5,47.6,63.5,42.8L63.5,42.8z M56.6,22.5c2-2.4,3-5.6,2.8-8.8
				c-3.1,0.3-6,1.8-8,4.2c-2,2.3-3.1,5.4-2.9,8.4C51.7,26.3,54.7,24.9,56.6,22.5z"/>
			<g>
				<path class="st2" d="M107.4,59.9H95.6l-2.8,8.4h-5l11.2-31.2h5.2l11.2,31.2h-5.1C110.3,68.4,107.4,59.9,107.4,59.9z M96.8,56.1
					h9.4l-4.6-13.7h-0.1L96.8,56.1L96.8,56.1z M139.7,57c0,7.1-3.8,11.6-9.5,11.6c-2.9,0.2-5.7-1.4-7.1-4h-0.1v11.3h-4.7V45.6h4.5
					v3.8h0.1c1.5-2.6,4.3-4.1,7.2-4C135.9,45.4,139.7,50,139.7,57z M134.9,57c0-4.6-2.4-7.6-6-7.6c-3.6,0-6,3.1-6,7.6
					c0,4.6,2.4,7.6,6,7.6C132.5,64.7,134.9,61.7,134.9,57z M164.6,57c0,7.1-3.8,11.6-9.5,11.6c-2.9,0.2-5.7-1.4-7.1-4h-0.1v11.3
					h-4.7V45.6h4.5v3.8h0.1c1.5-2.6,4.3-4.1,7.2-4C160.8,45.4,164.6,50,164.6,57z M159.9,57c0-4.6-2.4-7.6-6-7.6c-3.6,0-6,3.1-6,7.6
					c0,4.6,2.4,7.6,6,7.6C157.5,64.7,159.9,61.7,159.9,57z"/>
				<path class="st1" d="M181.2,59.7c0.3,3.1,3.3,5.1,7.4,5.1c3.9,0,6.8-2,6.8-4.8c0-2.4-1.7-3.9-5.7-4.9l-4-1
					c-5.7-1.4-8.4-4.1-8.4-8.4c0-5.4,4.7-9.1,11.3-9.1c6.6,0,11.1,3.7,11.2,9.1h-4.7c-0.3-3.1-2.8-5-6.6-5c-3.8,0-6.3,1.9-6.3,4.7
					c0,2.2,1.6,3.5,5.7,4.5l3.4,0.8c6.4,1.5,9,4.1,9,8.6c0,5.8-4.6,9.5-12,9.5c-6.9,0-11.6-3.6-11.9-9.2
					C176.4,59.7,181.2,59.7,181.2,59.7z M210.3,40.3v5.4h4.3v3.7h-4.3v12.5c0,1.9,0.9,2.9,2.8,2.9c0.5,0,1,0,1.5-0.1v3.7
					c-0.9,0.2-1.7,0.2-2.6,0.2c-4.6,0-6.4-1.7-6.4-6.1v-13h-3.3v-3.7h3.3v-5.4H210.3L210.3,40.3z"/>
				<path class="st2" d="M217.1,57c0-7.1,4.2-11.6,10.8-11.6c6.6,0,10.8,4.5,10.8,11.6c0,7.2-4.2,11.6-10.8,11.6
					S217.1,64.2,217.1,57L217.1,57z M233.9,57c0-4.9-2.2-7.8-6-7.8c-3.8,0-6,2.9-6,7.8c0,4.9,2.2,7.8,6,7.8
					C231.7,64.8,233.9,61.9,233.9,57z"/>
				<path class="st1" d="M242.5,45.6h4.4v3.9h0.1c0.6-2.5,2.9-4.2,5.5-4.1c0.5,0,1.1,0.1,1.6,0.2v4.4c-0.7-0.2-1.4-0.3-2.1-0.3
					c-1.4-0.1-2.7,0.5-3.6,1.5c-0.9,1-1.4,2.4-1.2,3.7v13.5h-4.7V45.6z"/>
				<path class="st2" d="M275.6,61.7c-0.6,4.1-4.6,7-9.8,7c-6.6,0-10.7-4.4-10.7-11.5c0-7.1,4.1-11.7,10.5-11.7
					c6.3,0,10.2,4.3,10.2,11.2v1.6h-16v0.3c-0.1,1.7,0.4,3.4,1.6,4.6c1.2,1.2,2.8,1.9,4.5,1.8c2.3,0.2,4.4-1.1,5.2-3.2
					C271.2,61.7,275.6,61.7,275.6,61.7z M259.9,54.9h11.3c0.1-1.5-0.5-3-1.5-4.1c-1.1-1.1-2.5-1.7-4-1.7c-1.5,0-3,0.6-4.1,1.7
					C260.5,51.9,259.8,53.4,259.9,54.9L259.9,54.9z"/>
			</g>
		</g>
		<g>
			<path class="st2" d="M96.2,13.7c2-0.1,3.9,0.6,5.3,2.1c1.4,1.4,2,3.4,1.8,5.4c0,4.8-2.6,7.5-7,7.5h-5.4v-15L96.2,13.7L96.2,13.7z
				 M93.1,26.6h2.8c1.4,0.1,2.8-0.5,3.7-1.5c1-1,1.4-2.5,1.2-3.9c0.2-1.4-0.3-2.8-1.2-3.8c-1-1-2.3-1.6-3.7-1.5h-2.8V26.6z
				 M105.9,23.1c-0.2-2,0.8-4,2.5-5.1c1.7-1.1,3.9-1.1,5.6,0c1.7,1.1,2.7,3,2.5,5.1c0.2,2-0.8,4-2.5,5.1c-1.7,1.1-3.9,1.1-5.6,0
				C106.6,27.1,105.7,25.1,105.9,23.1z M114.2,23.1c0-2.4-1.1-3.9-3-3.9c-1.9,0-3,1.4-3,3.9c0,2.5,1.1,3.9,3,3.9
				C113.1,27,114.2,25.5,114.2,23.1z"/>
			<path class="st1" d="M130.7,28.7h-2.3l-2.3-8.3h-0.2l-2.3,8.3h-2.3l-3.1-11.3h2.3l2,8.6h0.2l2.3-8.6h2.1l2.3,8.6h0.2l2-8.6h2.2
				L130.7,28.7z M136.4,17.4h2.1v1.8h0.2c0.6-1.3,1.9-2.1,3.4-2c2-0.2,3.8,1.4,3.9,3.4c0,0.3,0,0.6,0,0.8v7.3h-2.2V22
				c0-1.8-0.8-2.7-2.4-2.7c-1.4-0.1-2.6,1-2.7,2.5c0,0.1,0,0.3,0,0.4v6.6h-2.2C136.4,28.7,136.4,17.4,136.4,17.4z M149.5,13h2.2
				v15.7h-2.2V13z"/>
			<path class="st2" d="M154.9,23.1c-0.2-2,0.8-4,2.5-5.1c1.7-1.1,3.9-1.1,5.6,0c1.7,1.1,2.7,3,2.5,5.1c0.2,2-0.8,4-2.5,5.1
				c-1.7,1.1-3.9,1.1-5.6,0C155.6,27.1,154.7,25.1,154.9,23.1z M163.2,23.1c0-2.4-1.1-3.9-3-3.9c-1.9,0-3,1.4-3,3.9
				c0,2.5,1.1,3.9,3,3.9C162.1,27,163.2,25.5,163.2,23.1L163.2,23.1z M167.8,25.5c0-2,1.5-3.2,4.2-3.4l3.1-0.2v-1
				c0-1.2-0.8-1.9-2.3-1.9c-1.2,0-2.1,0.5-2.4,1.3h-2.2c0.2-1.9,2.1-3.2,4.6-3.2c2.8,0,4.4,1.4,4.4,3.8v7.7h-2.1v-1.6H175
				c-0.7,1.2-2,1.8-3.4,1.8c-1.9,0.2-3.5-1.2-3.7-3C167.9,25.8,167.8,25.6,167.8,25.5z M175.1,24.6v-0.9l-2.8,0.2
				c-1.6,0.1-2.3,0.6-2.3,1.6c0,1,0.9,1.6,2.1,1.6C173.6,27.2,174.9,26.1,175.1,24.6C175.1,24.6,175.1,24.6,175.1,24.6z M180.2,23.1
				c0-3.6,1.8-5.8,4.7-5.8c1.4-0.1,2.8,0.7,3.5,2h0.2V13h2.2v15.7h-2.1v-1.8h-0.2c-0.7,1.3-2.1,2-3.5,2
				C182.1,28.9,180.2,26.6,180.2,23.1z M182.5,23.1c0,2.4,1.1,3.8,3,3.8c1.9,0,3-1.5,3-3.8c0-2.4-1.2-3.8-3-3.8
				C183.7,19.2,182.5,20.7,182.5,23.1L182.5,23.1z M200,23.1c-0.2-2,0.8-4,2.5-5.1c1.7-1.1,3.9-1.1,5.6,0c1.7,1.1,2.7,3,2.5,5.1
				c0.2,2-0.8,4-2.5,5.1c-1.7,1.1-3.9,1.1-5.6,0C200.8,27.1,199.8,25.1,200,23.1L200,23.1z M208.4,23.1c0-2.4-1.1-3.9-3-3.9
				c-1.9,0-3,1.4-3,3.9c0,2.5,1.1,3.9,3,3.9C207.3,27,208.4,25.5,208.4,23.1L208.4,23.1z"/>
			<path class="st1" d="M213.6,17.4h2.1v1.8h0.2c0.6-1.3,1.9-2.1,3.4-2c2-0.2,3.8,1.4,3.9,3.4c0,0.3,0,0.5,0,0.8v7.3H221V22
				c0-1.8-0.8-2.7-2.4-2.7c-1.4-0.1-2.6,1-2.7,2.5c0,0.1,0,0.3,0,0.4v6.6h-2.2L213.6,17.4L213.6,17.4z M235.8,14.6v2.9h2.4v1.9h-2.4
				v5.8c0,1.2,0.5,1.7,1.6,1.7c0.3,0,0.6,0,0.9-0.1v1.9c-0.4,0.1-0.8,0.1-1.2,0.1c-2.5,0-3.5-0.9-3.5-3.1v-6.4h-1.8v-1.9h1.8v-2.9
				C233.6,14.6,235.8,14.6,235.8,14.6z M241.3,13h2.2v6.2h0.2c0.6-1.3,2-2.1,3.4-2c2-0.1,3.8,1.5,3.9,3.5c0,0.2,0,0.5,0,0.7v7.3
				h-2.2V22c0-1.8-0.8-2.7-2.4-2.7c-1.5-0.1-2.7,1-2.8,2.4c0,0.2,0,0.3,0,0.5v6.6h-2.2L241.3,13L241.3,13z"/>
			<path class="st2" d="M264,25.7c-0.6,2.1-2.7,3.5-4.9,3.3c-1.5,0-3-0.6-4-1.7c-1-1.1-1.5-2.6-1.3-4.1c-0.2-1.5,0.3-3,1.3-4.1
				c1-1.1,2.4-1.8,3.9-1.8c3.1,0,5,2.1,5,5.7v0.8h-8v0.1c-0.1,1.6,1.1,3.1,2.7,3.2c0.1,0,0.2,0,0.3,0c1.1,0.1,2.2-0.4,2.7-1.4
				L264,25.7L264,25.7z M256.2,22h5.7c0.1-1.5-1-2.8-2.5-2.9c-0.1,0-0.2,0-0.3,0C257.5,19.1,256.2,20.4,256.2,22
				C256.2,22,256.2,22,256.2,22z"/>
		</g>
	</g>
</g>
</svg>
