<svg width="274" height="275" viewBox="0 0 274 275" fill="none" xmlns="http://www.w3.org/2000/svg">
<path d="M141.523 156.925C146.304 153.483 150.521 149.319 154.023 144.582C157.437 139.817 160.17 134.601 162.146 129.083C164.168 123.725 165.536 118.141 166.221 112.454C166.933 106.774 166.639 101.012 165.354 95.4323C164.694 92.6218 163.632 89.9213 162.199 87.4147C160.744 84.791 158.729 82.5195 156.298 80.7614C153.563 78.8291 150.26 77.8674 146.916 78.0293C143.499 78.2837 140.225 79.5014 137.472 81.5412C136.167 82.464 134.939 83.4922 133.802 84.6153C132.749 85.7232 131.754 86.8855 130.822 88.0974C129.923 89.2609 129.1 90.4818 128.36 91.7522L127.152 93.6816L126.164 95.5797C123.736 100.456 121.788 105.558 120.348 110.812C118.865 115.941 118.116 121.254 118.124 126.594C118.135 131.658 118.882 136.695 120.339 141.545L120.842 143.303L121.501 144.997C121.925 146.111 122.365 147.272 122.804 148.339C123.741 150.484 124.789 152.579 125.943 154.615C126.618 155.792 127.356 156.938 128.094 158.083C126.948 158.6 125.866 158.992 124.627 159.51C119.989 161.233 115.14 162.324 110.21 162.754C105.485 163.105 100.735 162.734 96.1214 161.652C87.3733 159.317 79.2675 155.029 72.413 149.111C65.9942 143.562 60.3797 137.145 55.7316 130.046C51.4529 123.559 47.7052 116.738 44.525 109.648C41.6705 103.463 39.2318 97.0943 37.2253 90.5848C34.2339 81.0565 32.8218 71.1037 33.045 61.1209C33.3413 53.9513 34.3758 49.9039 33.9522 49.9509C33.462 50.8292 33.1228 51.7837 32.9488 52.7746C32.2392 55.5194 31.7416 58.3148 31.4604 61.1362C30.6218 71.3202 31.6017 81.5731 34.3545 91.4156C36.1621 98.1488 38.4335 104.749 41.1524 111.169C44.2026 118.541 47.851 125.652 52.061 132.43C56.7371 139.982 62.4591 146.834 69.0566 152.782C76.3268 159.357 85.0142 164.17 94.444 166.845C99.5901 168.163 104.909 168.677 110.211 168.37C115.744 167.988 121.197 166.844 126.417 164.97C128.224 164.349 129.994 163.627 131.719 162.806C134.919 166.942 138.485 170.781 142.374 174.277C152.799 183.491 164.526 191.117 177.177 196.908C186.314 201.169 195.779 204.686 205.481 207.426C216.207 210.545 227.238 212.499 238.381 213.255L241.864 213.35L238.946 214.949C235.856 216.753 232.97 218.666 230.241 220.517C225.458 223.858 220.938 227.559 216.72 231.589C209.505 238.49 206.07 243.62 206.667 244.153C207.263 244.687 211.859 240.75 219.435 234.963C223.278 232.093 227.858 228.737 233.176 225.396C235.842 223.703 238.666 222.009 241.63 220.362C243.136 219.547 244.658 218.716 246.211 217.916C246.995 217.508 247.717 217.195 248.831 216.52C250.31 215.676 251.472 214.37 252.14 212.803C252.478 211.956 252.638 211.048 252.61 210.136C252.577 209.422 252.45 208.715 252.233 208.034C251.886 207.037 251.433 206.079 250.883 205.178C250.051 203.719 249.188 202.291 248.372 200.879C246.692 198.07 245.044 195.387 243.459 192.83C240.226 187.777 237.182 183.415 234.451 179.68C229.115 172.462 225.208 168.304 224.47 168.822C223.733 169.339 226.229 174.439 230.577 182.362L238.33 196.17C239.795 198.764 241.317 201.479 242.897 204.313C243.682 205.726 244.498 207.169 245.314 208.613C245.339 208.65 245.371 208.683 245.409 208.707C244.075 208.408 242.177 208.047 239.447 207.639C228.837 205.947 218.35 203.56 208.052 200.493C198.779 197.625 189.723 194.094 180.956 189.928C168.976 184.332 157.858 177.049 147.942 168.301C144.702 165.365 141.695 162.18 138.95 158.776C139.844 158.196 140.738 157.615 141.601 157.004L141.523 156.925ZM132.971 150.161C131.922 148.372 130.969 146.528 130.114 144.638C129.706 143.697 129.345 142.709 128.952 141.72L128.387 140.245L127.948 138.708C126.648 134.553 125.98 130.227 125.968 125.874C125.93 121.266 126.547 116.675 127.8 112.241C129.041 107.508 130.747 102.911 132.895 98.515L133.727 96.868L134.652 95.315C135.256 94.2863 135.915 93.2913 136.628 92.3347C137.302 91.3465 138.055 90.625 138.871 89.6525C139.646 88.8726 140.485 88.1591 141.38 87.5195C142.813 86.2741 144.618 85.5375 146.513 85.4245C148.408 85.3114 150.288 85.8283 151.86 86.8945C155.267 89.6569 157.609 93.5176 158.483 97.8153C159.624 102.575 159.928 107.496 159.381 112.359C158.816 117.481 157.637 122.516 155.87 127.356C154.206 132.251 151.863 136.887 148.908 141.129C145.872 145.295 142.205 148.962 138.039 151.998C137.144 152.673 136.219 153.316 135.294 153.927C134.462 152.688 133.661 151.448 132.845 150.099" fill="white"/>
<path d="M144.523 152.925C149.304 149.483 153.521 145.319 157.023 140.582C160.437 135.817 163.17 130.601 165.146 125.083C167.168 119.725 168.536 114.141 169.221 108.454C169.933 102.774 169.639 97.0121 168.354 91.4323C167.694 88.6218 166.632 85.9213 165.199 83.4147C163.744 80.791 161.729 78.5195 159.298 76.7614C156.563 74.8291 153.26 73.8674 149.916 74.0293C146.499 74.2837 143.225 75.5014 140.472 77.5412C139.167 78.464 137.939 79.4922 136.802 80.6153C135.749 81.7232 134.754 82.8855 133.822 84.0974C132.923 85.2609 132.1 86.4818 131.36 87.7522L130.152 89.6816L129.164 91.5797C126.736 96.4563 124.788 101.558 123.348 106.812C121.865 111.941 121.116 117.254 121.124 122.594C121.135 127.658 121.882 132.695 123.339 137.545L123.842 139.303L124.501 140.997C124.925 142.111 125.365 143.272 125.804 144.339C126.741 146.484 127.789 148.579 128.943 150.615C129.618 151.792 130.356 152.938 131.094 154.083C129.948 154.6 128.866 154.992 127.627 155.51C122.989 157.233 118.14 158.324 113.21 158.754C108.485 159.105 103.735 158.734 99.1214 157.652C90.3733 155.317 82.2675 151.029 75.413 145.111C68.9942 139.562 63.3797 133.145 58.7316 126.046C54.4529 119.559 50.7052 112.738 47.525 105.648C44.6705 99.4629 42.2318 93.0943 40.2253 86.5848C37.2339 77.0565 35.8218 67.1037 36.045 57.1209C36.3413 49.9513 37.3758 45.9039 36.9522 45.9509C36.462 46.8292 36.1228 47.7837 35.9488 48.7746C35.2392 51.5194 34.7416 54.3148 34.4604 57.1362C33.6218 67.3202 34.6017 77.5731 37.3545 87.4156C39.1621 94.1488 41.4335 100.749 44.1524 107.169C47.2026 114.541 50.851 121.652 55.061 128.43C59.7371 135.982 65.4591 142.834 72.0566 148.782C79.3268 155.357 88.0142 160.17 97.444 162.845C102.59 164.163 107.909 164.677 113.211 164.37C118.744 163.988 124.197 162.844 129.417 160.97C131.224 160.349 132.994 159.627 134.719 158.806C137.919 162.942 141.485 166.781 145.374 170.277C155.799 179.491 167.526 187.117 180.177 192.908C189.314 197.169 198.779 200.686 208.481 203.426C219.207 206.545 230.238 208.499 241.381 209.255L244.864 209.35L241.946 210.949C238.856 212.753 235.97 214.666 233.241 216.517C228.458 219.858 223.938 223.559 219.72 227.589C212.505 234.49 209.07 239.62 209.667 240.153C210.263 240.687 214.859 236.75 222.435 230.963C226.278 228.093 230.858 224.737 236.176 221.396C238.842 219.703 241.666 218.009 244.63 216.362C246.136 215.547 247.658 214.716 249.211 213.916C249.995 213.508 250.717 213.195 251.831 212.52C253.31 211.676 254.472 210.37 255.14 208.803C255.478 207.956 255.638 207.048 255.61 206.136C255.577 205.422 255.45 204.715 255.233 204.034C254.886 203.037 254.433 202.079 253.883 201.178C253.051 199.719 252.188 198.291 251.372 196.879C249.692 194.07 248.044 191.387 246.459 188.83C243.226 183.777 240.182 179.415 237.451 175.68C232.115 168.462 228.208 164.304 227.47 164.822C226.733 165.339 229.229 170.439 233.577 178.362L241.33 192.17C242.795 194.764 244.317 197.479 245.897 200.313C246.682 201.726 247.498 203.169 248.314 204.613C248.339 204.65 248.371 204.683 248.409 204.707C247.075 204.408 245.177 204.047 242.447 203.639C231.837 201.947 221.35 199.56 211.052 196.493C201.779 193.625 192.723 190.094 183.956 185.928C171.976 180.332 160.858 173.049 150.942 164.301C147.702 161.365 144.695 158.18 141.95 154.776C142.844 154.196 143.738 153.615 144.601 153.004L144.523 152.925ZM135.971 146.161C134.922 144.372 133.969 142.528 133.114 140.638C132.706 139.697 132.345 138.709 131.952 137.72L131.387 136.245L130.948 134.708C129.648 130.553 128.98 126.227 128.968 121.874C128.93 117.266 129.547 112.675 130.8 108.241C132.041 103.508 133.747 98.9106 135.895 94.515L136.727 92.868L137.652 91.315C138.256 90.2863 138.915 89.2913 139.628 88.3347C140.302 87.3465 141.055 86.625 141.871 85.6525C142.646 84.8726 143.485 84.1591 144.38 83.5195C145.813 82.2741 147.618 81.5375 149.513 81.4245C151.408 81.3114 153.288 81.8283 154.86 82.8945C158.267 85.6569 160.609 89.5176 161.483 93.8153C162.624 98.5747 162.928 103.496 162.381 108.359C161.816 113.481 160.637 118.516 158.87 123.356C157.206 128.251 154.863 132.887 151.908 137.129C148.872 141.295 145.205 144.962 141.039 147.998C140.144 148.673 139.219 149.316 138.294 149.927C137.462 148.688 136.661 147.448 135.845 146.099" fill="#062F36"/>
</svg>
