<svg width="507" height="506" viewBox="0 0 507 506" fill="none" xmlns="http://www.w3.org/2000/svg">
<path d="M357.444 361.817C352.932 368.852 350.643 373.551 351.62 374.261C352.598 374.97 356.646 371.561 362.436 365.482C365.304 362.429 368.586 358.803 372.201 354.5C373.092 353.418 373.971 352.427 375.003 351.123C376.203 349.578 377.078 347.807 377.576 345.916C377.934 344.638 378.019 343.299 377.825 341.987C377.631 340.674 377.162 339.417 376.449 338.298C375.048 336.234 373.139 334.566 370.907 333.454C369.174 332.571 367.373 331.833 365.519 331.246C363.906 330.708 362.294 330.235 360.694 329.737C357.521 328.817 354.426 328 351.488 327.326C346.303 326.209 341.056 325.401 335.775 324.908C326.706 324.055 321.125 324.666 321.078 325.744C321.031 326.822 326.441 328.394 334.906 330.535C339.197 331.683 344.268 333.023 349.861 334.684C352.67 335.554 355.492 336.398 358.575 337.435C361.491 338.324 364.35 339.39 367.135 340.628L367.422 340.77C362.853 341.515 358.33 342.526 353.878 343.795C343.617 346.273 326.86 350.82 298.819 355.85C284.843 358.242 267.83 360.882 247.656 362.445C236.827 363.265 225.941 362.925 215.184 361.432C203 359.908 191.457 355.112 181.781 347.552C171.513 338.806 164.776 326.625 162.826 313.279C160.843 300.694 161.845 287.82 165.751 275.693C178.96 280.221 192.844 282.469 206.808 282.342C225.503 282.248 243.843 277.233 259.985 267.802C267.948 262.849 274.623 256.079 279.462 248.046C281.957 243.942 283.687 239.419 284.567 234.697C285.532 229.664 285.226 224.47 283.677 219.584C281.869 214.456 278.87 209.829 274.926 206.084C270.982 202.34 266.206 199.584 260.991 198.043C251.28 195.342 241.036 195.189 231.249 197.601C226.63 198.61 222.119 200.057 217.776 201.925C215.611 202.832 213.552 203.919 211.492 205.007C209.432 206.095 207.62 207.272 205.639 208.594C198.236 213.33 191.35 218.83 185.094 225.003C173.577 236.438 164.504 250.095 158.428 265.144C157.673 264.771 156.918 264.398 156.189 264.038C140.934 256.89 127.339 246.318 119.575 233.251C115.733 227.08 113.519 220.035 113.14 212.776C112.899 205.932 114.124 199.116 116.733 192.784C121.868 180.896 129.067 170.01 137.996 160.631C145.608 152.069 153.872 144.11 162.713 136.824C175.698 126.172 189.776 116.928 204.712 109.247C215.374 103.793 221.557 101.374 221.36 100.856C221.163 100.337 219.66 101.149 216.613 102.203C215.109 102.691 213.255 103.427 211.078 104.294C208.9 105.162 206.424 106.174 203.664 107.434C177.415 119.295 153.775 136.238 134.11 157.286C124.569 166.878 116.828 178.106 111.255 190.434C108.235 197.396 106.726 204.919 106.827 212.507C107.13 220.789 109.513 228.862 113.757 235.981C122.36 250.823 136.973 262.35 153.258 270.299C154.195 270.762 155.132 271.225 156.069 271.688C151.536 285.355 150.332 299.907 152.557 314.133C153.829 322.021 156.43 329.636 160.249 336.655C164.054 343.629 169.157 349.811 175.283 354.869C181.084 359.621 187.615 363.405 194.622 366.075C200.968 368.517 207.567 370.245 214.296 371.228C225.845 372.827 237.534 373.171 249.157 372.257C266.68 370.745 284.108 368.294 301.369 364.916C320.091 361.417 338.549 356.629 356.612 350.587C360.63 349.241 364.576 347.687 368.433 345.934C367.816 347.183 366.757 348.344 365.789 349.712C362.577 354.182 359.778 358.274 357.509 361.817L357.444 361.817ZM192.763 231.837C198.525 226.083 204.873 220.947 211.702 216.513C213.438 215.426 215.224 214.301 217.012 213.305C218.768 212.31 220.576 211.408 222.428 210.604C226.181 208.914 230.089 207.591 234.097 206.652C242.133 204.584 250.564 204.602 258.59 206.704C262.348 207.84 265.807 209.793 268.721 212.422C271.559 214.95 273.683 218.177 274.883 221.782C275.9 225.446 276.13 229.284 275.557 233.043C274.984 236.802 273.621 240.396 271.558 243.591C267.392 250.548 261.673 256.447 254.848 260.826C240.096 269.596 223.307 274.355 206.148 274.63C193.29 274.856 180.487 272.911 168.277 268.876C173.874 254.962 182.214 242.317 192.801 231.694L192.763 231.837ZM369.496 342.734C369.496 342.734 369.496 342.734 369.573 342.577C369.619 342.671 369.646 342.772 369.653 342.876" fill="#FFA600"/>
<path d="M362.165 357.051C357.653 364.086 355.364 368.785 356.341 369.495C357.318 370.204 361.367 366.795 367.156 360.716C370.025 357.663 373.306 354.037 376.922 349.734C377.813 348.652 378.691 347.66 379.724 346.357C380.924 344.812 381.799 343.041 382.297 341.15C382.655 339.872 382.74 338.533 382.546 337.22C382.351 335.908 381.883 334.651 381.17 333.532C379.769 331.468 377.86 329.8 375.627 328.688C373.895 327.805 372.093 327.067 370.24 326.48C368.627 325.942 367.015 325.469 365.415 324.971C362.242 324.051 359.147 323.234 356.209 322.56C351.024 321.443 345.777 320.635 340.496 320.141C331.427 319.289 325.846 319.9 325.799 320.978C325.752 322.056 331.162 323.628 339.627 325.769C343.918 326.917 348.989 328.257 354.581 329.918C357.391 330.788 360.213 331.632 363.296 332.669C366.212 333.558 369.07 334.624 371.856 335.862L372.143 336.003C367.573 336.749 363.051 337.759 358.599 339.029C348.338 341.507 331.58 346.054 303.54 351.084C289.564 353.476 272.551 356.115 252.377 357.679C241.548 358.499 230.662 358.159 219.905 356.666C207.721 355.142 196.177 350.346 186.501 342.786C176.234 334.04 169.497 321.859 167.546 308.513C165.563 295.928 166.565 283.054 170.471 270.927C183.681 275.455 197.565 277.703 211.529 277.575C230.223 277.482 248.564 272.467 264.706 263.036C272.669 258.083 279.344 251.313 284.183 243.28C286.678 239.176 288.408 234.653 289.288 229.931C290.253 224.898 289.947 219.703 288.398 214.818C286.59 209.689 283.59 205.063 279.647 201.318C275.703 197.573 270.927 194.818 265.711 193.277C256 190.576 245.757 190.423 235.969 192.835C231.351 193.843 226.839 195.291 222.497 197.159C220.332 198.065 218.272 199.153 216.213 200.241C214.153 201.329 212.34 202.506 210.36 203.827C202.956 208.564 196.07 214.064 189.814 220.237C178.297 231.672 169.225 245.329 163.149 260.378C162.394 260.005 161.639 259.632 160.91 259.272C145.655 252.124 132.059 241.552 124.296 228.485C120.454 222.314 118.24 215.269 117.861 208.009C117.62 201.166 118.845 194.35 121.454 188.018C126.589 176.13 133.787 165.244 142.716 155.865C150.329 147.303 158.593 139.344 167.434 132.058C180.419 121.406 194.497 112.162 209.432 104.481C220.095 99.0272 226.278 96.608 226.081 96.0895C225.883 95.5709 224.381 96.3834 221.334 97.4369C219.83 97.9246 217.976 98.6607 215.798 99.5282C213.621 100.396 211.145 101.408 208.385 102.668C182.136 114.528 158.496 131.472 138.83 152.519C129.29 162.112 121.548 173.339 115.975 185.668C112.956 192.63 111.447 200.153 111.548 207.741C111.851 216.023 114.234 224.096 118.478 231.214C127.081 246.057 141.694 257.584 157.978 265.532C158.916 265.995 159.853 266.459 160.79 266.922C156.257 280.589 155.053 295.141 157.278 309.367C158.55 317.255 161.151 324.87 164.969 331.889C168.775 338.863 173.878 345.045 180.004 350.103C185.805 354.855 192.335 358.639 199.343 361.309C205.689 363.751 212.288 365.479 219.016 366.462C230.566 368.06 242.254 368.405 253.878 367.49C271.4 365.979 288.829 363.528 306.089 360.15C324.811 356.65 343.269 351.863 361.332 345.821C365.35 344.474 369.296 342.921 373.154 341.167C372.537 342.417 371.477 343.578 370.51 344.946C367.297 349.416 364.499 353.508 362.23 357.051L362.165 357.051ZM197.483 227.071C203.245 221.317 209.593 216.181 216.423 211.747C218.158 210.66 219.945 209.535 221.733 208.539C223.489 207.544 225.296 206.642 227.148 205.838C230.902 204.148 234.81 202.825 238.818 201.886C246.853 199.818 255.284 199.836 263.311 201.938C267.068 203.074 270.528 205.027 273.442 207.656C276.279 210.183 278.404 213.411 279.603 217.016C280.621 220.68 280.851 224.518 280.277 228.276C279.704 232.035 278.342 235.63 276.279 238.824C272.113 245.782 266.394 251.681 259.569 256.06C244.817 264.83 228.028 269.589 210.869 269.864C198.011 270.09 185.207 268.145 172.997 264.11C178.595 250.196 186.935 237.551 197.522 226.928L197.483 227.071ZM374.217 337.968C374.217 337.968 374.217 337.968 374.294 337.811C374.34 337.905 374.367 338.006 374.373 338.11" fill="#062F36"/>
</svg>
