<svg width="33" height="34" viewBox="0 0 33 34" fill="none" xmlns="http://www.w3.org/2000/svg">
<path d="M11 4.16504C7.20363 4.16504 4.125 7.24366 4.125 11.04V22.04C4.125 25.8364 7.20363 28.915 11 28.915H22C25.7964 28.915 28.875 25.8364 28.875 22.04V11.04C28.875 7.24366 25.7964 4.16504 22 4.16504H11ZM24.75 6.91504C25.509 6.91504 26.125 7.53104 26.125 8.29004C26.125 9.04904 25.509 9.66504 24.75 9.66504C23.991 9.66504 23.375 9.04904 23.375 8.29004C23.375 7.53104 23.991 6.91504 24.75 6.91504ZM16.5 9.66504C20.2964 9.66504 23.375 12.7437 23.375 16.54C23.375 20.3364 20.2964 23.415 16.5 23.415C12.7036 23.415 9.625 20.3364 9.625 16.54C9.625 12.7437 12.7036 9.66504 16.5 9.66504ZM16.5 12.415C15.406 12.415 14.3568 12.8496 13.5832 13.6232C12.8096 14.3968 12.375 15.446 12.375 16.54C12.375 17.6341 12.8096 18.6833 13.5832 19.4569C14.3568 20.2304 15.406 20.665 16.5 20.665C17.594 20.665 18.6432 20.2304 19.4168 19.4569C20.1904 18.6833 20.625 17.6341 20.625 16.54C20.625 15.446 20.1904 14.3968 19.4168 13.6232C18.6432 12.8496 17.594 12.415 16.5 12.415Z" fill="white"/>
</svg>
