<svg width="358" height="120" viewBox="0 0 358 120" fill="none" xmlns="http://www.w3.org/2000/svg">
<path d="M71.311 70.6419C79.3455 66.1513 85.4895 62.7298 86.0147 62.4626C87.6951 61.5537 89.428 59.1481 86.0147 57.277C84.9119 56.6889 78.9779 53.3744 71.311 49.0977L60.7559 59.8965L71.311 70.6419Z" fill="#FFDD33"/>
<path d="M60.7564 59.896L27.043 94.4843C27.8307 94.5912 28.7234 94.3774 29.7736 93.7894C31.9792 92.5598 55.4001 79.5157 71.3115 70.6414L60.7564 59.896Z" fill="#FF6666"/>
<path d="M60.7581 59.8962L71.3133 49.0974C71.3133 49.0974 32.1385 27.3394 29.7754 26.0563C28.8827 25.5217 27.8849 25.3614 26.9922 25.5217L60.7581 59.8962Z" fill="#7BFF7B"/>
<path d="M60.7573 59.896L26.9913 25.5215C25.626 25.8422 24.4707 27.0718 24.4707 29.5844C24.4707 33.5939 24.4707 87.0535 24.4707 90.4214C24.4707 92.7202 25.3634 94.3774 27.0438 94.5378L60.7573 59.896Z" fill="#6ED8FF"/>
<path d="M108.001 41.4419C107.832 41.4419 107.689 41.3828 107.571 41.2648C107.453 41.1467 107.394 41.0033 107.394 40.8346V24.3607C107.394 24.1751 107.453 24.0233 107.571 23.9052C107.689 23.7871 107.832 23.7281 108.001 23.7281H114.176C115.88 23.7281 117.28 23.9896 118.376 24.5125C119.49 25.0355 120.325 25.8115 120.882 26.8406C121.455 27.8697 121.75 29.1266 121.767 30.6112C121.801 31.3534 121.818 32.0114 121.818 32.585C121.818 33.1586 121.801 33.8081 121.767 34.5335C121.734 36.1024 121.447 37.4015 120.907 38.4305C120.367 39.4428 119.549 40.2019 118.452 40.708C117.373 41.1973 115.989 41.4419 114.302 41.4419H108.001ZM110.911 38.5318H114.176C115.12 38.5318 115.888 38.3968 116.478 38.1269C117.069 37.857 117.499 37.4268 117.769 36.8363C118.056 36.229 118.208 35.4361 118.224 34.4576C118.241 33.9515 118.25 33.5128 118.25 33.1417C118.267 32.7537 118.267 32.3741 118.25 32.003C118.25 31.6149 118.241 31.1763 118.224 30.6871C118.191 29.3037 117.845 28.283 117.187 27.6251C116.529 26.9672 115.483 26.6382 114.049 26.6382H110.911V38.5318ZM130.703 41.6949C129.354 41.6949 128.215 41.4588 127.287 40.9864C126.376 40.514 125.676 39.8476 125.187 38.9873C124.714 38.1269 124.444 37.1231 124.377 35.9759C124.36 35.6722 124.352 35.3011 124.352 34.8625C124.352 34.4238 124.36 34.0527 124.377 33.749C124.444 32.585 124.723 31.5812 125.212 30.7377C125.718 29.8773 126.427 29.2109 127.338 28.7385C128.265 28.2662 129.387 28.03 130.703 28.03C132.019 28.03 133.133 28.2662 134.044 28.7385C134.971 29.2109 135.68 29.8773 136.169 30.7377C136.675 31.5812 136.962 32.585 137.03 33.749C137.046 34.0527 137.055 34.4238 137.055 34.8625C137.055 35.3011 137.046 35.6722 137.03 35.9759C136.962 37.1231 136.684 38.1269 136.195 38.9873C135.722 39.8476 135.022 40.514 134.094 40.9864C133.183 41.4588 132.053 41.6949 130.703 41.6949ZM130.703 39.1897C131.597 39.1897 132.289 38.9113 132.778 38.3546C133.268 37.781 133.537 36.946 133.588 35.8494C133.605 35.5963 133.613 35.2674 133.613 34.8625C133.613 34.4576 133.605 34.1286 133.588 33.8756C133.537 32.7959 133.268 31.9692 132.778 31.3956C132.289 30.822 131.597 30.5352 130.703 30.5352C129.809 30.5352 129.117 30.822 128.628 31.3956C128.139 31.9692 127.869 32.7959 127.818 33.8756C127.802 34.1286 127.793 34.4576 127.793 34.8625C127.793 35.2674 127.802 35.5963 127.818 35.8494C127.869 36.946 128.139 37.781 128.628 38.3546C129.117 38.9113 129.809 39.1897 130.703 39.1897ZM143.081 41.4419C142.845 41.4419 142.668 41.3828 142.55 41.2648C142.432 41.1467 142.331 40.9948 142.246 40.8093L138.628 29.0675C138.611 28.9832 138.602 28.9073 138.602 28.8398C138.602 28.6879 138.653 28.5614 138.754 28.4602C138.872 28.3421 138.999 28.283 139.134 28.283H141.006C141.209 28.283 141.369 28.3421 141.487 28.4602C141.605 28.5614 141.673 28.6626 141.69 28.7639L144.17 37.14L146.801 28.8398C146.835 28.7217 146.911 28.6036 147.029 28.4855C147.147 28.3505 147.324 28.283 147.56 28.283H148.826C149.062 28.283 149.239 28.3505 149.357 28.4855C149.475 28.6036 149.551 28.7217 149.585 28.8398L152.217 37.14L154.697 28.7639C154.713 28.6626 154.773 28.5614 154.874 28.4602C154.992 28.3421 155.152 28.283 155.355 28.283H157.227C157.379 28.283 157.505 28.3421 157.607 28.4602C157.725 28.5614 157.784 28.6879 157.784 28.8398C157.784 28.9073 157.767 28.9832 157.733 29.0675L154.115 40.8093C154.064 40.9948 153.971 41.1467 153.836 41.2648C153.718 41.3828 153.541 41.4419 153.305 41.4419H151.66C151.424 41.4419 151.238 41.3828 151.103 41.2648C150.968 41.1467 150.875 40.9948 150.825 40.8093L148.193 32.8127L145.561 40.8093C145.494 40.9948 145.393 41.1467 145.258 41.2648C145.14 41.3828 144.954 41.4419 144.701 41.4419H143.081ZM160.854 41.4419C160.685 41.4419 160.542 41.3828 160.424 41.2648C160.305 41.1467 160.246 41.0033 160.246 40.8346V28.8904C160.246 28.7217 160.305 28.5783 160.424 28.4602C160.542 28.3421 160.685 28.283 160.854 28.283H162.929C163.097 28.283 163.241 28.3421 163.359 28.4602C163.477 28.5783 163.536 28.7217 163.536 28.8904V29.9279C163.975 29.3881 164.531 28.941 165.206 28.5867C165.898 28.2156 166.75 28.03 167.762 28.03C168.791 28.03 169.685 28.2662 170.444 28.7385C171.204 29.194 171.786 29.8436 172.191 30.6871C172.612 31.5306 172.823 32.5428 172.823 33.7237V40.8346C172.823 41.0033 172.764 41.1467 172.646 41.2648C172.528 41.3828 172.385 41.4419 172.216 41.4419H169.989C169.82 41.4419 169.677 41.3828 169.559 41.2648C169.441 41.1467 169.382 41.0033 169.382 40.8346V33.8756C169.382 32.8971 169.137 32.1295 168.648 31.5728C168.175 31.016 167.484 30.7377 166.573 30.7377C165.696 30.7377 164.995 31.016 164.472 31.5728C163.949 32.1295 163.688 32.8971 163.688 33.8756V40.8346C163.688 41.0033 163.629 41.1467 163.511 41.2648C163.393 41.3828 163.249 41.4419 163.081 41.4419H160.854ZM176.67 41.4419C176.502 41.4419 176.358 41.3828 176.24 41.2648C176.122 41.1467 176.063 41.0033 176.063 40.8346V24.0823C176.063 23.9136 176.122 23.7702 176.24 23.6521C176.358 23.5341 176.502 23.475 176.67 23.475H178.771C178.939 23.475 179.083 23.5341 179.201 23.6521C179.319 23.7702 179.378 23.9136 179.378 24.0823V40.8346C179.378 41.0033 179.319 41.1467 179.201 41.2648C179.083 41.3828 178.939 41.4419 178.771 41.4419H176.67ZM188.555 41.6949C187.205 41.6949 186.067 41.4588 185.139 40.9864C184.228 40.514 183.528 39.8476 183.038 38.9873C182.566 38.1269 182.296 37.1231 182.229 35.9759C182.212 35.6722 182.203 35.3011 182.203 34.8625C182.203 34.4238 182.212 34.0527 182.229 33.749C182.296 32.585 182.574 31.5812 183.064 30.7377C183.57 29.8773 184.278 29.2109 185.189 28.7385C186.117 28.2662 187.239 28.03 188.555 28.03C189.871 28.03 190.984 28.2662 191.895 28.7385C192.823 29.2109 193.532 29.8773 194.021 30.7377C194.527 31.5812 194.814 32.585 194.881 33.749C194.898 34.0527 194.907 34.4238 194.907 34.8625C194.907 35.3011 194.898 35.6722 194.881 35.9759C194.814 37.1231 194.535 38.1269 194.046 38.9873C193.574 39.8476 192.874 40.514 191.946 40.9864C191.035 41.4588 189.905 41.6949 188.555 41.6949ZM188.555 39.1897C189.449 39.1897 190.141 38.9113 190.63 38.3546C191.119 37.781 191.389 36.946 191.44 35.8494C191.457 35.5963 191.465 35.2674 191.465 34.8625C191.465 34.4576 191.457 34.1286 191.44 33.8756C191.389 32.7959 191.119 31.9692 190.63 31.3956C190.141 30.822 189.449 30.5352 188.555 30.5352C187.661 30.5352 186.969 30.822 186.48 31.3956C185.991 31.9692 185.721 32.7959 185.67 33.8756C185.653 34.1286 185.645 34.4576 185.645 34.8625C185.645 35.2674 185.653 35.5963 185.67 35.8494C185.721 36.946 185.991 37.781 186.48 38.3546C186.969 38.9113 187.661 39.1897 188.555 39.1897ZM201.531 41.6949C200.654 41.6949 199.861 41.5262 199.153 41.1888C198.444 40.8346 197.879 40.3706 197.457 39.797C197.052 39.2066 196.85 38.5486 196.85 37.8232C196.85 36.6423 197.322 35.706 198.267 35.0143C199.229 34.3058 200.494 33.8334 202.063 33.5972L205.53 33.0911V32.5597C205.53 31.8511 205.353 31.3028 204.998 30.9148C204.644 30.5268 204.037 30.3328 203.176 30.3328C202.569 30.3328 202.071 30.4593 201.683 30.7124C201.312 30.9486 201.034 31.2691 200.848 31.674C200.713 31.8933 200.519 32.003 200.266 32.003H198.267C198.081 32.003 197.938 31.9523 197.837 31.8511C197.753 31.7499 197.71 31.6149 197.71 31.4462C197.727 31.1763 197.837 30.8473 198.039 30.4593C198.242 30.0713 198.562 29.7002 199.001 29.3459C199.44 28.9747 200.005 28.6626 200.696 28.4096C201.388 28.1565 202.223 28.03 203.202 28.03C204.264 28.03 205.159 28.165 205.884 28.4349C206.626 28.6879 207.217 29.0338 207.655 29.4724C208.094 29.911 208.415 30.4256 208.617 31.016C208.819 31.6065 208.921 32.2307 208.921 32.8886V40.8346C208.921 41.0033 208.862 41.1467 208.744 41.2648C208.625 41.3828 208.482 41.4419 208.313 41.4419H206.264C206.078 41.4419 205.926 41.3828 205.808 41.2648C205.707 41.1467 205.656 41.0033 205.656 40.8346V39.8476C205.437 40.1682 205.142 40.4719 204.771 40.7586C204.399 41.0286 203.944 41.2563 203.404 41.4419C202.881 41.6106 202.257 41.6949 201.531 41.6949ZM202.392 39.2909C202.982 39.2909 203.514 39.1644 203.986 38.9113C204.475 38.6583 204.855 38.2703 205.125 37.7473C205.412 37.2074 205.555 36.5326 205.555 35.7229V35.1914L203.025 35.5963C202.029 35.7482 201.287 35.9928 200.798 36.3302C200.308 36.6676 200.064 37.0809 200.064 37.5702C200.064 37.9413 200.173 38.2618 200.393 38.5318C200.629 38.7848 200.924 38.9788 201.278 39.1138C201.633 39.2319 202.004 39.2909 202.392 39.2909ZM217.051 41.6949C216.174 41.6949 215.398 41.5516 214.723 41.2648C214.065 40.9611 213.517 40.5393 213.078 39.9995C212.639 39.4596 212.302 38.827 212.066 38.1016C211.83 37.3593 211.695 36.5495 211.661 35.6722C211.644 35.3686 211.636 35.0987 211.636 34.8625C211.636 34.6094 211.644 34.3311 211.661 34.0274C211.695 33.1839 211.821 32.3994 212.041 31.674C212.277 30.9486 212.614 30.3159 213.053 29.7761C213.508 29.2194 214.065 28.7892 214.723 28.4855C215.398 28.1818 216.174 28.03 217.051 28.03C217.962 28.03 218.73 28.1903 219.354 28.5108C219.995 28.8145 220.526 29.2109 220.948 29.7002V24.0823C220.948 23.9136 220.999 23.7702 221.1 23.6521C221.218 23.5341 221.37 23.475 221.555 23.475H223.706C223.875 23.475 224.018 23.5341 224.137 23.6521C224.255 23.7702 224.314 23.9136 224.314 24.0823V40.8346C224.314 41.0033 224.255 41.1467 224.137 41.2648C224.018 41.3828 223.875 41.4419 223.706 41.4419H221.707C221.522 41.4419 221.37 41.3828 221.252 41.2648C221.151 41.1467 221.1 41.0033 221.1 40.8346V39.8983C220.678 40.4212 220.138 40.8514 219.48 41.1888C218.839 41.5262 218.03 41.6949 217.051 41.6949ZM217.987 38.9873C218.696 38.9873 219.261 38.827 219.683 38.5065C220.105 38.1859 220.417 37.781 220.619 37.2918C220.822 36.7857 220.931 36.2711 220.948 35.7482C220.965 35.4445 220.973 35.124 220.973 34.7866C220.973 34.4323 220.965 34.1033 220.948 33.7996C220.931 33.2935 220.813 32.8127 220.594 32.3572C220.374 31.8849 220.054 31.4968 219.632 31.1932C219.21 30.8895 218.662 30.7377 217.987 30.7377C217.279 30.7377 216.714 30.8979 216.292 31.2185C215.887 31.5222 215.592 31.927 215.406 32.4331C215.221 32.9393 215.111 33.496 215.077 34.1033C215.06 34.6094 215.06 35.1155 215.077 35.6216C215.111 36.229 215.221 36.7857 215.406 37.2918C215.592 37.7979 215.887 38.2112 216.292 38.5318C216.714 38.8354 217.279 38.9873 217.987 38.9873ZM239.289 41.6949C237.94 41.6949 236.801 41.4588 235.873 40.9864C234.962 40.514 234.262 39.8476 233.773 38.9873C233.3 38.1269 233.031 37.1231 232.963 35.9759C232.946 35.6722 232.938 35.3011 232.938 34.8625C232.938 34.4238 232.946 34.0527 232.963 33.749C233.031 32.585 233.309 31.5812 233.798 30.7377C234.304 29.8773 235.013 29.2109 235.924 28.7385C236.852 28.2662 237.974 28.03 239.289 28.03C240.605 28.03 241.719 28.2662 242.63 28.7385C243.558 29.2109 244.266 29.8773 244.755 30.7377C245.262 31.5812 245.548 32.585 245.616 33.749C245.633 34.0527 245.641 34.4238 245.641 34.8625C245.641 35.3011 245.633 35.6722 245.616 35.9759C245.548 37.1231 245.27 38.1269 244.781 38.9873C244.308 39.8476 243.608 40.514 242.68 40.9864C241.769 41.4588 240.639 41.6949 239.289 41.6949ZM239.289 39.1897C240.184 39.1897 240.875 38.9113 241.364 38.3546C241.854 37.781 242.124 36.946 242.174 35.8494C242.191 35.5963 242.2 35.2674 242.2 34.8625C242.2 34.4576 242.191 34.1286 242.174 33.8756C242.124 32.7959 241.854 31.9692 241.364 31.3956C240.875 30.822 240.184 30.5352 239.289 30.5352C238.395 30.5352 237.704 30.822 237.214 31.3956C236.725 31.9692 236.455 32.7959 236.405 33.8756C236.388 34.1286 236.379 34.4576 236.379 34.8625C236.379 35.2674 236.388 35.5963 236.405 35.8494C236.455 36.946 236.725 37.781 237.214 38.3546C237.704 38.9113 238.395 39.1897 239.289 39.1897ZM249.052 41.4419C248.883 41.4419 248.74 41.3828 248.622 41.2648C248.504 41.1467 248.445 41.0033 248.445 40.8346V28.8904C248.445 28.7217 248.504 28.5783 248.622 28.4602C248.74 28.3421 248.883 28.283 249.052 28.283H251.127C251.296 28.283 251.439 28.3421 251.557 28.4602C251.676 28.5783 251.735 28.7217 251.735 28.8904V29.9279C252.173 29.3881 252.73 28.941 253.405 28.5867C254.096 28.2156 254.948 28.03 255.961 28.03C256.99 28.03 257.884 28.2662 258.643 28.7385C259.402 29.194 259.984 29.8436 260.389 30.6871C260.811 31.5306 261.022 32.5428 261.022 33.7237V40.8346C261.022 41.0033 260.963 41.1467 260.845 41.2648C260.726 41.3828 260.583 41.4419 260.414 41.4419H258.187C258.019 41.4419 257.875 41.3828 257.757 41.2648C257.639 41.1467 257.58 41.0033 257.58 40.8346V33.8756C257.58 32.8971 257.336 32.1295 256.846 31.5728C256.374 31.016 255.682 30.7377 254.771 30.7377C253.894 30.7377 253.194 31.016 252.671 31.5728C252.148 32.1295 251.886 32.8971 251.886 33.8756V40.8346C251.886 41.0033 251.827 41.1467 251.709 41.2648C251.591 41.3828 251.448 41.4419 251.279 41.4419H249.052ZM275.447 41.4419C274.434 41.4419 273.582 41.2648 272.891 40.9105C272.199 40.5562 271.685 40.0332 271.347 39.3415C271.01 38.633 270.841 37.7557 270.841 36.7098V30.9654H268.842C268.673 30.9654 268.53 30.9064 268.412 30.7883C268.294 30.6702 268.235 30.5268 268.235 30.3581V28.8904C268.235 28.7217 268.294 28.5783 268.412 28.4602C268.53 28.3421 268.673 28.283 268.842 28.283H270.841V24.0823C270.841 23.9136 270.892 23.7702 270.993 23.6521C271.111 23.5341 271.263 23.475 271.448 23.475H273.498C273.667 23.475 273.81 23.5341 273.928 23.6521C274.046 23.7702 274.105 23.9136 274.105 24.0823V28.283H277.269C277.437 28.283 277.581 28.3421 277.699 28.4602C277.817 28.5783 277.876 28.7217 277.876 28.8904V30.3581C277.876 30.5268 277.817 30.6702 277.699 30.7883C277.581 30.9064 277.437 30.9654 277.269 30.9654H274.105V36.4567C274.105 37.1484 274.223 37.6882 274.46 38.0763C274.713 38.4643 275.143 38.6583 275.75 38.6583H277.496C277.665 38.6583 277.808 38.7173 277.927 38.8354C278.045 38.9535 278.104 39.0969 278.104 39.2656V40.8346C278.104 41.0033 278.045 41.1467 277.927 41.2648C277.808 41.3828 277.665 41.4419 277.496 41.4419H275.447ZM280.981 41.4419C280.812 41.4419 280.669 41.3828 280.551 41.2648C280.433 41.1467 280.374 41.0033 280.374 40.8346V24.0823C280.374 23.9136 280.433 23.7702 280.551 23.6521C280.669 23.5341 280.812 23.475 280.981 23.475H283.233C283.419 23.475 283.562 23.5341 283.664 23.6521C283.782 23.7702 283.841 23.9136 283.841 24.0823V29.852C284.296 29.3121 284.853 28.8735 285.511 28.5361C286.169 28.1987 286.979 28.03 287.94 28.03C288.969 28.03 289.863 28.2662 290.623 28.7385C291.399 29.194 291.997 29.8436 292.419 30.6871C292.841 31.5306 293.052 32.5428 293.052 33.7237V40.8346C293.052 41.0033 292.993 41.1467 292.875 41.2648C292.757 41.3828 292.613 41.4419 292.445 41.4419H290.167C289.998 41.4419 289.855 41.3828 289.737 41.2648C289.619 41.1467 289.56 41.0033 289.56 40.8346V33.8756C289.56 32.8971 289.315 32.1295 288.826 31.5728C288.353 31.016 287.662 30.7377 286.751 30.7377C285.874 30.7377 285.165 31.016 284.625 31.5728C284.102 32.1295 283.841 32.8971 283.841 33.8756V40.8346C283.841 41.0033 283.782 41.1467 283.664 41.2648C283.562 41.3828 283.419 41.4419 283.233 41.4419H280.981ZM301.932 41.6949C300.059 41.6949 298.575 41.1551 297.478 40.0754C296.381 38.9957 295.791 37.4605 295.707 35.4698C295.69 35.3011 295.681 35.0902 295.681 34.8372C295.681 34.5672 295.69 34.3564 295.707 34.2045C295.774 32.9393 296.061 31.8427 296.567 30.9148C297.09 29.987 297.807 29.2784 298.718 28.7892C299.629 28.283 300.7 28.03 301.932 28.03C303.298 28.03 304.445 28.3168 305.373 28.8904C306.301 29.4471 307.001 30.2316 307.474 31.2438C307.946 32.2391 308.182 33.3948 308.182 34.7106V35.2421C308.182 35.4108 308.123 35.5542 308.005 35.6722C307.887 35.7903 307.735 35.8494 307.55 35.8494H299.148C299.148 35.8494 299.148 35.8747 299.148 35.9253C299.148 35.9759 299.148 36.0181 299.148 36.0518C299.165 36.6423 299.275 37.1906 299.477 37.6967C299.696 38.1859 300.009 38.5824 300.413 38.886C300.835 39.1897 301.333 39.3415 301.906 39.3415C302.379 39.3415 302.775 39.2741 303.096 39.1391C303.416 38.9873 303.678 38.8186 303.88 38.633C304.083 38.4474 304.226 38.2956 304.31 38.1775C304.462 37.975 304.58 37.857 304.665 37.8232C304.766 37.7726 304.909 37.7473 305.095 37.7473H307.271C307.44 37.7473 307.575 37.7979 307.676 37.8991C307.794 38.0004 307.845 38.1269 307.828 38.2787C307.811 38.5486 307.668 38.8776 307.398 39.2656C307.145 39.6536 306.774 40.0332 306.284 40.4044C305.795 40.7755 305.179 41.0876 304.437 41.3407C303.712 41.5769 302.876 41.6949 301.932 41.6949ZM299.148 33.7237H304.741V33.6478C304.741 32.9899 304.631 32.4163 304.412 31.927C304.192 31.4378 303.872 31.0498 303.45 30.763C303.028 30.4762 302.522 30.3328 301.932 30.3328C301.341 30.3328 300.835 30.4762 300.413 30.763C299.992 31.0498 299.671 31.4378 299.452 31.927C299.249 32.4163 299.148 32.9899 299.148 33.6478V33.7237Z" fill="white"/>
<path d="M110.891 89.0698C110.533 89.0698 110.229 88.9447 109.979 88.6944C109.728 88.4441 109.603 88.1402 109.603 87.7826V52.8674C109.603 52.4741 109.728 52.1523 109.979 51.902C110.229 51.6518 110.533 51.5266 110.891 51.5266H125.264C128.053 51.5266 130.484 51.9736 132.558 52.8674C134.632 53.7256 136.241 55.0485 137.385 56.8363C138.529 58.5883 139.102 60.7873 139.102 63.4332C139.102 66.1148 138.529 68.3317 137.385 70.0837C136.241 71.7999 134.632 73.0871 132.558 73.9453C130.484 74.8034 128.053 75.2325 125.264 75.2325H117.273V87.7826C117.273 88.1402 117.148 88.4441 116.897 88.6944C116.683 88.9447 116.379 89.0698 115.986 89.0698H110.891ZM117.166 69.2792H124.996C127.07 69.2792 128.661 68.7965 129.769 67.8311C130.878 66.8299 131.432 65.364 131.432 63.4332C131.432 61.6454 130.914 60.2152 129.877 59.1425C128.84 58.0341 127.213 57.4799 124.996 57.4799H117.166V69.2792ZM141.9 89.0698C141.543 89.0698 141.239 88.9447 140.988 88.6944C140.738 88.4441 140.613 88.1402 140.613 87.7826V52.2775C140.613 51.9199 140.738 51.616 140.988 51.3657C141.239 51.1154 141.543 50.9903 141.9 50.9903H146.352C146.709 50.9903 147.013 51.1154 147.263 51.3657C147.514 51.616 147.639 51.9199 147.639 52.2775V87.7826C147.639 88.1402 147.514 88.4441 147.263 88.6944C147.013 88.9447 146.709 89.0698 146.352 89.0698H141.9ZM159.097 89.6062C157.238 89.6062 155.558 89.2486 154.056 88.5335C152.554 87.7826 151.356 86.7994 150.463 85.5837C149.604 84.3322 149.175 82.9378 149.175 81.4003C149.175 78.8974 150.177 76.913 152.179 75.447C154.217 73.9453 156.899 72.9441 160.224 72.4435L167.572 71.3709V70.2446C167.572 68.7429 167.196 67.5808 166.445 66.7584C165.694 65.9361 164.407 65.5249 162.584 65.5249C161.296 65.5249 160.242 65.793 159.419 66.3294C158.633 66.8299 158.043 67.5093 157.649 68.3674C157.363 68.8322 156.952 69.0647 156.416 69.0647H152.179C151.786 69.0647 151.482 68.9574 151.267 68.7429C151.088 68.5283 150.999 68.2423 150.999 67.8847C151.035 67.3126 151.267 66.6154 151.696 65.793C152.125 64.9707 152.805 64.184 153.734 63.4332C154.664 62.6466 155.862 61.9851 157.328 61.4487C158.794 60.9124 160.563 60.6442 162.637 60.6442C164.89 60.6442 166.785 60.9303 168.322 61.5024C169.896 62.0387 171.147 62.7717 172.077 63.7013C173.006 64.631 173.686 65.7215 174.115 66.973C174.544 68.2244 174.758 69.5474 174.758 70.9418V87.7826C174.758 88.1402 174.633 88.4441 174.383 88.6944C174.133 88.9447 173.829 89.0698 173.471 89.0698H169.127C168.734 89.0698 168.412 88.9447 168.161 88.6944C167.947 88.4441 167.84 88.1402 167.84 87.7826V85.6909C167.375 86.3703 166.749 87.0139 165.963 87.6217C165.176 88.1938 164.211 88.6765 163.066 89.0698C161.958 89.4274 160.635 89.6062 159.097 89.6062ZM160.921 84.511C162.172 84.511 163.299 84.2428 164.3 83.7065C165.337 83.1702 166.141 82.3478 166.713 81.2394C167.321 80.0952 167.625 78.665 167.625 76.9487V75.8224L162.262 76.6806C160.152 77.0024 158.579 77.5208 157.542 78.2359C156.505 78.951 155.987 79.827 155.987 80.864C155.987 81.6506 156.219 82.3299 156.684 82.902C157.185 83.4383 157.81 83.8495 158.561 84.1356C159.312 84.3859 160.099 84.511 160.921 84.511ZM182.193 99.2601C181.907 99.2601 181.657 99.1529 181.442 98.9383C181.227 98.7238 181.12 98.4735 181.12 98.1875C181.12 98.0444 181.12 97.9014 181.12 97.7584C181.156 97.6511 181.227 97.5081 181.335 97.3293L185.518 87.4072L175.221 63.1114C175.078 62.7538 175.006 62.5035 175.006 62.3605C175.042 62.0387 175.167 61.7705 175.381 61.556C175.596 61.3057 175.864 61.1806 176.186 61.1806H180.53C180.959 61.1806 181.281 61.2878 181.496 61.5024C181.71 61.7169 181.871 61.9493 181.978 62.1996L189.112 79.7377L196.459 62.1996C196.567 61.9136 196.727 61.6812 196.942 61.5024C197.156 61.2878 197.478 61.1806 197.907 61.1806H202.198C202.484 61.1806 202.734 61.2878 202.949 61.5024C203.199 61.7169 203.324 61.9672 203.324 62.2532C203.324 62.4678 203.253 62.7538 203.11 63.1114L187.932 98.2411C187.789 98.5271 187.61 98.7595 187.395 98.9383C187.181 99.1529 186.859 99.2601 186.43 99.2601H182.193ZM224.958 89.6062C221.633 89.6062 218.844 89.1235 216.591 88.1581C214.375 87.1569 212.676 85.8697 211.496 84.2965C210.352 82.6875 209.744 81.007 209.673 79.255C209.673 78.9332 209.78 78.665 209.995 78.4505C210.209 78.2359 210.477 78.1287 210.799 78.1287H215.572C216.037 78.1287 216.377 78.2359 216.591 78.4505C216.842 78.6292 217.056 78.8616 217.235 79.1477C217.45 79.827 217.861 80.5064 218.469 81.1858C219.076 81.8293 219.899 82.3657 220.936 82.7947C222.008 83.2238 223.349 83.4383 224.958 83.4383C227.533 83.4383 229.445 83.0093 230.697 82.1511C231.984 81.293 232.628 80.131 232.628 78.665C232.628 77.6281 232.288 76.8057 231.609 76.1979C230.929 75.5543 229.875 74.9822 228.444 74.4816C227.05 73.9453 225.191 73.3911 222.866 72.819C220.185 72.1754 217.932 71.4066 216.109 70.5128C214.321 69.5831 212.962 68.4211 212.033 67.0266C211.139 65.6321 210.692 63.8622 210.692 61.7169C210.692 59.6431 211.246 57.8017 212.354 56.1927C213.499 54.5837 215.108 53.3144 217.181 52.3847C219.291 51.4551 221.794 50.9903 224.69 50.9903C227.014 50.9903 229.07 51.3121 230.858 51.9557C232.646 52.5635 234.129 53.3859 235.309 54.4228C236.489 55.424 237.383 56.5145 237.991 57.6944C238.635 58.8386 238.974 59.9649 239.01 61.0733C239.01 61.3594 238.903 61.6275 238.688 61.8778C238.509 62.0923 238.241 62.1996 237.884 62.1996H232.896C232.61 62.1996 232.324 62.1281 232.038 61.9851C231.752 61.8421 231.519 61.5739 231.341 61.1806C231.126 60.0722 230.429 59.1246 229.249 58.338C228.069 57.5514 226.549 57.1581 224.69 57.1581C222.759 57.1581 221.204 57.5156 220.024 58.2308C218.844 58.9459 218.254 60.0543 218.254 61.556C218.254 62.5572 218.54 63.3974 219.112 64.0768C219.72 64.7204 220.668 65.2925 221.955 65.793C223.278 66.2936 225.012 66.8299 227.157 67.402C230.196 68.0814 232.681 68.868 234.612 69.7619C236.543 70.6558 237.955 71.7999 238.849 73.1944C239.743 74.5531 240.19 76.2873 240.19 78.3968C240.19 80.7567 239.546 82.7769 238.259 84.4574C237.008 86.1021 235.238 87.3714 232.95 88.2653C230.661 89.1592 227.997 89.6062 224.958 89.6062ZM254.542 89.0698C252.397 89.0698 250.591 88.6944 249.125 87.9435C247.659 87.1927 246.569 86.0842 245.854 84.6183C245.139 83.1165 244.781 81.2573 244.781 79.0404V66.8657H240.544C240.186 66.8657 239.883 66.7406 239.632 66.4903C239.382 66.24 239.257 65.9361 239.257 65.5785V62.4678C239.257 62.1102 239.382 61.8063 239.632 61.556C239.883 61.3057 240.186 61.1806 240.544 61.1806H244.781V52.2775C244.781 51.9199 244.888 51.616 245.103 51.3657C245.353 51.1154 245.675 50.9903 246.068 50.9903H250.413C250.77 50.9903 251.074 51.1154 251.324 51.3657C251.575 51.616 251.7 51.9199 251.7 52.2775V61.1806H258.404C258.761 61.1806 259.065 61.3057 259.316 61.556C259.566 61.8063 259.691 62.1102 259.691 62.4678V65.5785C259.691 65.9361 259.566 66.24 259.316 66.4903C259.065 66.7406 258.761 66.8657 258.404 66.8657H251.7V78.5041C251.7 79.9701 251.95 81.1142 252.451 81.9366C252.987 82.759 253.899 83.1702 255.186 83.1702H258.887C259.244 83.1702 259.548 83.2953 259.798 83.5456C260.049 83.7959 260.174 84.0998 260.174 84.4574V87.7826C260.174 88.1402 260.049 88.4441 259.798 88.6944C259.548 88.9447 259.244 89.0698 258.887 89.0698H254.542ZM273.513 89.6062C270.653 89.6062 268.239 89.1056 266.272 88.1044C264.342 87.1033 262.858 85.6909 261.821 83.8674C260.82 82.0439 260.248 79.9164 260.105 77.4851C260.069 76.8415 260.051 76.0548 260.051 75.1252C260.051 74.1956 260.069 73.4089 260.105 72.7653C260.248 70.2982 260.838 68.1708 261.875 66.383C262.947 64.5595 264.449 63.1471 266.38 62.146C268.346 61.1448 270.724 60.6442 273.513 60.6442C276.302 60.6442 278.662 61.1448 280.593 62.146C282.559 63.1471 284.061 64.5595 285.098 66.383C286.17 68.1708 286.778 70.2982 286.921 72.7653C286.957 73.4089 286.975 74.1956 286.975 75.1252C286.975 76.0548 286.957 76.8415 286.921 77.4851C286.778 79.9164 286.188 82.0439 285.151 83.8674C284.15 85.6909 282.666 87.1033 280.7 88.1044C278.769 89.1056 276.373 89.6062 273.513 89.6062ZM273.513 84.2965C275.408 84.2965 276.874 83.7065 277.911 82.5266C278.948 81.3109 279.52 79.541 279.627 77.2169C279.663 76.6806 279.681 75.9833 279.681 75.1252C279.681 74.2671 279.663 73.5698 279.627 73.0335C279.52 70.7452 278.948 68.9931 277.911 67.7775C276.874 66.5618 275.408 65.9539 273.513 65.9539C271.618 65.9539 270.152 66.5618 269.115 67.7775C268.078 68.9931 267.506 70.7452 267.399 73.0335C267.363 73.5698 267.345 74.2671 267.345 75.1252C267.345 75.9833 267.363 76.6806 267.399 77.2169C267.506 79.541 268.078 81.3109 269.115 82.5266C270.152 83.7065 271.618 84.2965 273.513 84.2965ZM290.45 89.0698C290.093 89.0698 289.789 88.9447 289.538 88.6944C289.288 88.4441 289.163 88.1402 289.163 87.7826V62.5214C289.163 62.1281 289.288 61.8063 289.538 61.556C289.789 61.3057 290.093 61.1806 290.45 61.1806H294.794C295.152 61.1806 295.456 61.3057 295.706 61.556C295.992 61.8063 296.135 62.1281 296.135 62.5214V64.7204C296.958 63.5762 298.012 62.7002 299.3 62.0923C300.623 61.4845 302.142 61.1806 303.858 61.1806H306.057C306.451 61.1806 306.755 61.3057 306.969 61.556C307.219 61.8063 307.345 62.1102 307.345 62.4678V66.3294C307.345 66.6869 307.219 66.9908 306.969 67.2411C306.755 67.4914 306.451 67.6166 306.057 67.6166H301.874C300.158 67.6166 298.817 68.0993 297.851 69.0647C296.922 70.0301 296.457 71.353 296.457 73.0335V87.7826C296.457 88.1402 296.332 88.4441 296.082 88.6944C295.831 88.9447 295.51 89.0698 295.116 89.0698H290.45ZM319.42 89.6062C315.452 89.6062 312.305 88.462 309.981 86.1736C307.657 83.8853 306.405 80.6315 306.227 76.4124C306.191 76.0548 306.173 75.6079 306.173 75.0716C306.173 74.4995 306.191 74.0525 306.227 73.7307C306.37 71.0491 306.978 68.725 308.05 66.7584C309.159 64.7919 310.678 63.2902 312.609 62.2532C314.54 61.1806 316.81 60.6442 319.42 60.6442C322.317 60.6442 324.748 61.2521 326.715 62.4678C328.681 63.6477 330.165 65.3103 331.166 67.4557C332.167 69.5652 332.668 72.0145 332.668 74.8034V75.9297C332.668 76.2873 332.543 76.5912 332.292 76.8415C332.042 77.0918 331.72 77.2169 331.327 77.2169H313.521C313.521 77.2169 313.521 77.2705 313.521 77.3778C313.521 77.4851 313.521 77.5745 313.521 77.646C313.557 78.8974 313.789 80.0595 314.218 81.1321C314.683 82.169 315.344 83.0093 316.202 83.6529C317.096 84.2965 318.151 84.6183 319.367 84.6183C320.368 84.6183 321.208 84.4753 321.888 84.1892C322.567 83.8674 323.121 83.5099 323.55 83.1165C323.979 82.7232 324.283 82.4014 324.462 82.1511C324.784 81.7221 325.034 81.4718 325.213 81.4003C325.427 81.293 325.731 81.2394 326.125 81.2394H330.737C331.095 81.2394 331.381 81.3466 331.595 81.5612C331.845 81.7757 331.953 82.0439 331.917 82.3657C331.881 82.9378 331.577 83.635 331.005 84.4574C330.469 85.2797 329.682 86.0842 328.645 86.8709C327.608 87.6575 326.303 88.319 324.73 88.8553C323.193 89.3559 321.423 89.6062 319.42 89.6062ZM313.521 72.7117H325.374V72.5508C325.374 71.1563 325.141 69.9407 324.676 68.9038C324.212 67.8668 323.532 67.0445 322.638 66.4366C321.745 65.8288 320.672 65.5249 319.42 65.5249C318.169 65.5249 317.096 65.8288 316.202 66.4366C315.309 67.0445 314.629 67.8668 314.164 68.9038C313.735 69.9407 313.521 71.1563 313.521 72.5508V72.7117Z" fill="white"/>
</svg>
