<?xml version="1.0" encoding="utf-8"?>
<!-- Generator: Adobe Illustrator 26.0.1, SVG Export Plug-In . SVG Version: 6.00 Build 0)  -->
<svg version="1.1" id="artwork" xmlns="http://www.w3.org/2000/svg" xmlns:xlink="http://www.w3.org/1999/xlink" x="0px" y="0px"
	 viewBox="0 0 300 88.9" style="enable-background:new 0 0 300 88.9;" xml:space="preserve">
<style type="text/css">
	.st0{fill:#A6A6A6;}
	.st1{fill:url(#SVGID_1_);}
	.st2{fill:url(#SVGID_00000106835183901637076940000013796375859503050387_);}
	.st3{fill:url(#SVGID_00000071521728977280532130000011778476670120141503_);}
	.st4{fill:url(#SVGID_00000004543973513061785920000009967286980943277206_);}
	.st5{opacity:0.2;enable-background:new    ;}
	.st6{opacity:0.12;enable-background:new    ;}
	.st7{opacity:0.25;fill:#FFFFFF;enable-background:new    ;}
	.st8{fill:#FFFFFF;}
	.st9{fill:#FFFFFF;stroke:#FFFFFF;stroke-width:0.2;stroke-miterlimit:10;}
</style>
<g>
	<g>
		<path d="M288.9,88.9H11.1C5,88.9,0,83.9,0,77.8V11.1C0,5,5,0,11.1,0h277.8C295,0,300,5,300,11.1v66.7
			C300,83.9,295,88.9,288.9,88.9z"/>
	</g>
	<g>
		<g>
			<path class="st0" d="M288.9,1.8c5.1,0,9.3,4.2,9.3,9.3v66.7c0,5.1-4.2,9.3-9.3,9.3H11.1c-5.1,0-9.3-4.2-9.3-9.3V11.1
				C1.8,6,6,1.8,11.1,1.8H288.9 M288.9,0H11.1C5,0,0,5,0,11.1v66.7c0,6.1,5,11.1,11.1,11.1h277.8c6.1,0,11.1-5,11.1-11.1V11.1
				C300,5,295,0,288.9,0L288.9,0z"/>
		</g>
	</g>
	<g>
		
			<linearGradient id="SVGID_1_" gradientUnits="userSpaceOnUse" x1="48.4436" y1="211.5342" x2="11.1494" y2="174.2399" gradientTransform="matrix(1 0 0 -1 0 230.8893)">
			<stop  offset="0" style="stop-color:#00A0FF"/>
			<stop  offset="6.574450e-03" style="stop-color:#00A1FF"/>
			<stop  offset="0.2601" style="stop-color:#00BEFF"/>
			<stop  offset="0.5122" style="stop-color:#00D2FF"/>
			<stop  offset="0.7604" style="stop-color:#00DFFF"/>
			<stop  offset="1" style="stop-color:#00E3FF"/>
		</linearGradient>
		<path class="st1" d="M23.2,16.8c-0.6,0.7-1,1.7-1,3.1V69c0,1.4,0.4,2.4,1,3.1l0.2,0.2l27.5-27.5v-0.3v-0.3L23.4,16.6L23.2,16.8z"
			/>
		
			<linearGradient id="SVGID_00000041271333445322461900000001504780940279286431_" gradientUnits="userSpaceOnUse" x1="75.1873" y1="186.4414" x2="21.4164" y2="186.4414" gradientTransform="matrix(1 0 0 -1 0 230.8893)">
			<stop  offset="0" style="stop-color:#FFE000"/>
			<stop  offset="0.4087" style="stop-color:#FFBD00"/>
			<stop  offset="0.7754" style="stop-color:#FFA500"/>
			<stop  offset="1" style="stop-color:#FF9C00"/>
		</linearGradient>
		<path style="fill:url(#SVGID_00000041271333445322461900000001504780940279286431_);" d="M60.1,54l-9.2-9.2v-0.3v-0.3l9.2-9.2
			l0.2,0.1l10.9,6.2c3.1,1.8,3.1,4.7,0,6.4l-10.9,6.2L60.1,54z"/>
		
			<linearGradient id="SVGID_00000121251238793826244990000007617512146276439461_" gradientUnits="userSpaceOnUse" x1="55.1708" y1="181.3422" x2="4.5968" y2="130.7682" gradientTransform="matrix(1 0 0 -1 0 230.8893)">
			<stop  offset="0" style="stop-color:#FF3A44"/>
			<stop  offset="1" style="stop-color:#C31162"/>
		</linearGradient>
		<path style="fill:url(#SVGID_00000121251238793826244990000007617512146276439461_);" d="M60.3,53.8l-9.4-9.4L23.2,72.1
			c1,1.1,2.7,1.2,4.6,0.1L60.3,53.8"/>
		
			<linearGradient id="SVGID_00000156581061675507703600000011621748182555786933_" gradientUnits="userSpaceOnUse" x1="16.2161" y1="230.4976" x2="38.7994" y2="207.9142" gradientTransform="matrix(1 0 0 -1 0 230.8893)">
			<stop  offset="0" style="stop-color:#32A071"/>
			<stop  offset="6.850000e-02" style="stop-color:#2DA771"/>
			<stop  offset="0.4762" style="stop-color:#15CF74"/>
			<stop  offset="0.8009" style="stop-color:#06E775"/>
			<stop  offset="1" style="stop-color:#00F076"/>
		</linearGradient>
		<path style="fill:url(#SVGID_00000156581061675507703600000011621748182555786933_);" d="M60.3,35.1L27.8,16.6
			c-1.9-1.1-3.6-0.9-4.6,0.1l27.7,27.7L60.3,35.1z"/>
		<g>
			<path class="st5" d="M60.1,53.6L27.8,72c-1.8,1-3.4,1-4.5,0l0,0l-0.2,0.2l0,0l0.2,0.2l0,0c1,0.9,2.6,1,4.5,0l32.5-18.4L60.1,53.6
				z"/>
			<path class="st6" d="M23.2,71.8c-0.6-0.7-1-1.7-1-3.1V69c0,1.4,0.4,2.4,1,3.1l0.2-0.2L23.2,71.8z"/>
		</g>
		<path class="st6" d="M71.1,47.3l-11.1,6.3l0.2,0.2l10.9-6.2c1.6-0.9,2.3-2,2.3-3.2l0,0C73.3,45.5,72.6,46.5,71.1,47.3z"/>
		<path class="st7" d="M27.8,16.9l43.3,24.6c1.4,0.8,2.2,1.8,2.3,2.9l0,0c0-1.2-0.8-2.3-2.3-3.2L27.8,16.6c-3.1-1.8-5.6-0.3-5.6,3.3
			v0.3C22.2,16.6,24.7,15.2,27.8,16.9z"/>
	</g>
	<g>
		<path class="st8" d="M151.4,48.3c-5.2,0-9.5,4-9.5,9.5c0,5.4,4.3,9.5,9.5,9.5c5.2,0,9.5-4,9.5-9.5
			C160.9,52.3,156.6,48.3,151.4,48.3z M151.4,63.5c-2.9,0-5.3-2.4-5.3-5.7c0-3.4,2.5-5.7,5.3-5.7s5.3,2.3,5.3,5.7
			C156.7,61.2,154.3,63.5,151.4,63.5z M130.7,48.3c-5.2,0-9.5,4-9.5,9.5c0,5.4,4.3,9.5,9.5,9.5c5.2,0,9.5-4,9.5-9.5
			C140.2,52.3,135.9,48.3,130.7,48.3z M130.7,63.5c-2.9,0-5.3-2.4-5.3-5.7c0-3.4,2.5-5.7,5.3-5.7c2.9,0,5.3,2.3,5.3,5.7
			C136.1,61.2,133.6,63.5,130.7,63.5z M106.1,51.2v4h9.6c-0.3,2.3-1,3.9-2.2,5c-1.4,1.4-3.6,2.9-7.4,2.9c-5.9,0-10.5-4.8-10.5-10.7
			s4.6-10.7,10.5-10.7c3.2,0,5.5,1.3,7.2,2.9l2.8-2.8c-2.4-2.3-5.6-4-10.1-4c-8.1,0-14.9,6.6-14.9,14.7c0,8.1,6.8,14.7,14.9,14.7
			c4.4,0,7.7-1.4,10.2-4.1c2.6-2.6,3.5-6.4,3.5-9.4c0-0.9-0.1-1.8-0.2-2.5H106.1z M206.8,54.4c-0.8-2.1-3.2-6-8.1-6
			c-4.9,0-8.9,3.8-8.9,9.5c0,5.3,4,9.5,9.4,9.5c4.3,0,6.8-2.6,7.9-4.2l-3.2-2.1c-1.1,1.6-2.5,2.6-4.7,2.6c-2.1,0-3.6-1-4.6-2.9
			l12.6-5.2L206.8,54.4z M193.9,57.5c-0.1-3.7,2.8-5.5,4.9-5.5c1.6,0,3,0.8,3.5,2L193.9,57.5z M183.6,66.7h4.2V38.9h-4.2V66.7z
			 M176.8,50.4h-0.1c-0.9-1.1-2.7-2.1-5-2.1c-4.7,0-9.1,4.2-9.1,9.5c0,5.3,4.3,9.4,9.1,9.4c2.3,0,4-1,5-2.1h0.1v1.4
			c0,3.6-1.9,5.5-5,5.5c-2.5,0-4.1-1.8-4.8-3.4l-3.6,1.5c1,2.5,3.8,5.6,8.4,5.6c4.9,0,9-2.9,9-9.8v-17h-3.9V50.4z M172.1,63.5
			c-2.9,0-5.3-2.4-5.3-5.7c0-3.3,2.4-5.8,5.3-5.8c2.8,0,5,2.4,5,5.8C177.1,61.1,174.9,63.5,172.1,63.5z M226.2,38.9h-9.9v27.8h4.1
			V56.1h5.8c4.6,0,9.1-3.3,9.1-8.6S230.8,38.9,226.2,38.9z M226.3,52.3h-5.9v-9.5h5.9c3.1,0,4.9,2.6,4.9,4.8
			C231.2,49.7,229.4,52.3,226.3,52.3z M252,48.3c-3,0-6.1,1.3-7.4,4.3l3.7,1.5c0.8-1.5,2.3-2,3.8-2c2.1,0,4.3,1.3,4.4,3.6v0.3
			c-0.8-0.4-2.4-1.1-4.3-1.1c-4,0-8,2.2-8,6.3c0,3.7,3.3,6.1,6.9,6.1c2.8,0,4.3-1.3,5.3-2.7h0.1v2.1h4V56
			C260.4,51,256.7,48.3,252,48.3z M251.5,63.5c-1.4,0-3.3-0.7-3.3-2.4c0-2.1,2.4-3,4.4-3c1.8,0,2.7,0.4,3.8,0.9
			C256.1,61.7,253.9,63.5,251.5,63.5z M275,48.9l-4.8,12h-0.1l-4.9-12h-4.5l7.4,16.8l-4.2,9.4h4.3l11.4-26.2H275z M237.6,66.7h4.1
			V38.9h-4.1V66.7z"/>
		<g>
			<path class="st9" d="M105.1,22.9c0,1.9-0.5,3.3-1.6,4.4c-1.2,1.3-2.9,2-4.9,2c-1.9,0-3.5-0.7-4.9-2c-1.3-1.3-2-3-2-4.9
				c0-2,0.7-3.6,2-4.9c1.3-1.3,3-2,4.9-2c1,0,1.9,0.2,2.7,0.6c0.9,0.4,1.6,0.9,2.1,1.5l-1.2,1.2c-0.9-1.1-2.1-1.6-3.6-1.6
				c-1.4,0-2.6,0.5-3.6,1.5c-1,1-1.5,2.3-1.5,3.8s0.5,2.8,1.5,3.8c1,1,2.2,1.5,3.6,1.5c1.5,0,2.7-0.5,3.7-1.5c0.6-0.6,1-1.5,1.1-2.7
				h-4.8v-1.6h6.4C105.1,22.3,105.1,22.6,105.1,22.9z"/>
			<path class="st9" d="M115.3,17.4h-6v4.2h5.5v1.6h-5.5v4.2h6V29h-7.7V15.7h7.7V17.4z"/>
			<path class="st9" d="M122.5,29h-1.7V17.4h-3.7v-1.6h9.1v1.6h-3.7V29z"/>
			<path class="st9" d="M132.8,29V15.7h1.7V29H132.8z"/>
			<path class="st9" d="M142.1,29h-1.7V17.4h-3.7v-1.6h9.1v1.6h-3.7V29z"/>
			<path class="st9" d="M163.1,27.3c-1.3,1.3-2.9,2-4.9,2c-1.9,0-3.6-0.7-4.9-2c-1.3-1.3-2-3-2-4.9s0.7-3.6,2-4.9
				c1.3-1.3,2.9-2,4.9-2c1.9,0,3.5,0.7,4.9,2c1.3,1.3,2,3,2,4.9C165,24.3,164.4,26,163.1,27.3z M154.6,26.2c1,1,2.2,1.5,3.6,1.5
				s2.6-0.5,3.6-1.5c1-1,1.5-2.3,1.5-3.8c0-1.5-0.5-2.8-1.5-3.8c-1-1-2.2-1.5-3.6-1.5s-2.6,0.5-3.6,1.5c-1,1-1.5,2.3-1.5,3.8
				C153.1,23.9,153.6,25.2,154.6,26.2z"/>
			<path class="st9" d="M167.4,29V15.7h2.1l6.5,10.3h0.1l-0.1-2.6v-7.8h1.7V29h-1.8l-6.7-10.8h-0.1l0.1,2.6V29H167.4z"/>
		</g>
	</g>
</g>
</svg>
