<svg width="33" height="34" viewBox="0 0 33 34" fill="none" xmlns="http://www.w3.org/2000/svg">
<path d="M30.25 5.53857C29.1775 6.1752 27.0256 7.04282 25.7606 7.29307C25.7235 7.3027 25.6933 7.31507 25.6575 7.3247C24.5396 6.22195 23.0079 5.53857 21.3125 5.53857C17.8956 5.53857 15.125 8.3092 15.125 11.7261C15.125 11.9062 15.1099 12.2376 15.125 12.4136C10.5146 12.4136 7.00563 9.99907 4.48938 6.91357C4.21575 7.60107 4.09613 8.68732 4.09613 9.70757C4.09613 11.6339 5.60175 13.5259 7.94612 14.6988C7.51437 14.8102 7.03862 14.8899 6.54362 14.8899C5.74475 14.8899 4.89913 14.6796 4.125 14.0416C4.125 14.0649 4.125 14.0869 4.125 14.1117C4.125 16.8039 6.98225 18.6368 9.52325 19.1469C9.00763 19.4508 7.96813 19.4811 7.46075 19.4811C7.10325 19.4811 5.83825 19.3174 5.5 19.2542C6.20675 21.4611 8.756 22.7013 11.1856 22.7453C9.28538 24.2358 7.96675 24.7886 4.0755 24.7886H2.75C5.2085 26.3643 8.33938 27.5399 11.4771 27.5399C21.6934 27.5399 27.5 19.7533 27.5 12.4136C27.5 12.2953 27.4973 12.0478 27.4931 11.7989C27.4931 11.7742 27.5 11.7508 27.5 11.7261C27.5 11.6889 27.489 11.6532 27.489 11.6161C27.4849 11.4291 27.4807 11.2544 27.4766 11.1637C28.5629 10.3799 29.5047 9.40232 30.25 8.28857C29.2531 8.73132 28.1834 9.02832 27.06 9.16307C28.2068 8.47557 29.8361 6.83657 30.25 5.53857Z" fill="white"/>
</svg>
