<svg width="33" height="34" viewBox="0 0 33 34" fill="none" xmlns="http://www.w3.org/2000/svg">
<path d="M29.6753 8.54579C29.359 7.36329 28.4267 6.43104 27.2442 6.11479C25.0992 5.54004 16.5 5.54004 16.5 5.54004C16.5 5.54004 7.90075 5.54004 5.75575 6.11479C4.57325 6.43104 3.641 7.36329 3.32475 8.54579C2.75 10.6908 2.75 16.54 2.75 16.54C2.75 16.54 2.75 22.3893 3.32475 24.5343C3.641 25.7168 4.57325 26.649 5.75575 26.9653C7.90075 27.54 16.5 27.54 16.5 27.54C16.5 27.54 25.0992 27.54 27.2442 26.9653C28.4281 26.649 29.359 25.7168 29.6753 24.5343C30.25 22.3893 30.25 16.54 30.25 16.54C30.25 16.54 30.25 10.6908 29.6753 8.54579ZM13.75 21.303V11.777L22 16.54L13.75 21.303Z" fill="white"/>
</svg>
